<svg data-v-0dd9719b="" version="1.0" xmlns="http://www.w3.org/2000/svg" xmlns:xlink="http://www.w3.org/1999/xlink" width="100%" height="100%" viewBox="0 0 340.000000 250.000000" preserveAspectRatio="xMidYMid meet" color-interpolation-filters="sRGB" style="margin: auto;">   <g data-v-0dd9719b="" fill="#1dd165" class="icon-text-wrapper icon-svg-group iconsvg" transform="translate(117.77499771118164,56.87810516357422)"><g class="iconsvg-imagesvg" transform="translate(22.22500228881836,0)"><g><rect fill="#1dd165" fill-opacity="0" stroke-width="2" x="0" y="0" width="60" height="63.80128027902426" class="image-rect"></rect> <svg x="0" y="0" width="60" height="63.80128027902426" filtersec="colorsb9549903386" class="image-svg-svg primary" style="overflow: visible;"><svg xmlns="http://www.w3.org/2000/svg" viewBox="-0.005511641502380371 -0.0011513382196426392 112.60130310058594 119.73571014404297"><title>资源 3</title><g><g><path d="M60.49 98.87c12.23.24 22.34-4.28 30-14.15 3.23-4.16 7.73-5.34 12.15-3.67a10.47 10.47 0 0 1 6.58 10.09 11 11 0 0 1-2.65 6.43c-16.13 20-37.32 25.93-61.39 19.94C20.73 111.42 5.64 95 1 70.09-5.19 36.84 17.89 5.32 51.23.58A56.83 56.83 0 0 1 59.67 0 10.18 10.18 0 0 1 70 10.43a10.15 10.15 0 0 1-10.31 10.19c-18.3-.15-35.62 13.43-38.77 33.63S32.6 95.16 52.74 98.32a36.64 36.64 0 0 0 7.75.55z" fill="#1dd165"></path><path d="M65.69 55.72l26.16-26c2.54-2.53 5.3-4.31 9.08-4.32a10.74 10.74 0 0 1 10.31 6.33c2.08 4.12 1.85 8.51-1.27 11.75-11.17 11.63-22.48 23.1-34.2 34.16-.54-.79-.14-1.57.07-2.34 1.16-4.4.32-8.12-3.19-11.31a45.94 45.94 0 0 1-7.3-7.64.47.47 0 0 1 .34-.63z" fill="#9971fe"></path><path d="M65.69 55.72a1.21 1.21 0 0 0 0 .38c-.77 2.06-2.66 3.17-4 4.71-1.21 1.35-2.54 2.58-3.72 4-2.75 3.19-3.21 6.79-2.2 10.71.2.79.61 1.55.1 2.35-6.63-6.57-13.35-12.98-19.75-19.69-3.94-4.13-3.25-11.42 1-15.33a11.29 11.29 0 0 1 15.58 0c4.35 4.26 8.65 8.59 12.99 12.87z" fill="#feb228"></path><path d="M55.83 77.83c-2.65-6-1.5-11.1 3.41-15.46 2.23-2 4.3-4.17 6.45-6.27 2.9 2.85 5.94 5.58 8.67 8.59 3.55 3.89 3.24 8.38 1.41 13-4.77 7.16-14.48 7.73-19.94.14z" fill="#0078fb"></path></g></g></svg></svg> <!----></g></g> <g transform="translate(0,70.8012809753418)"><g data-gra="path-name" fill-rule="" class="tp-name iconsvg-namesvg" transform="translate(0,0)"><g transform="scale(1)"><g><path d="M20.13 5.5L32.62 5.5 32.62-18.59 52.25-18.59 52.25-25.19 32.62-25.19 32.62-32.84 25.46-32.84 25.46-25.19 12.38-25.19 13.92-36.74C25.91-36.85 37.79-37.29 49.99-38.23L49.99-44.99C35.7-44.05 21.73-43.56 7.59-43.56L4.29-18.59 25.46-18.59 25.46-1.54 20.13-1.54ZM1.81 3.63L10.12 3.63C12.65-1.98 14.9-8.09 16.72-14.85L9.07-14.85C7.26-8.36 4.79-2.37 1.81 3.63ZM38.28-14.85C40.09-8.09 42.35-1.98 44.88 3.63L53.19 3.63C50.22-2.37 47.74-8.36 45.92-14.85ZM77.06 5.39L85.97 5.39C91.19-4.62 93.28-13.47 93.28-25.74L93.28-28.55 99.22-28.55 99.22-1.65 94.33-1.65 94.33 5.39 106.26 5.39 106.26-35.59 93.28-35.59 93.28-44.44 86.24-44.44 86.24-35.59 81.02-35.59 81.02-28.55 86.24-28.55 86.24-25.74C86.24-16.11 84.2-7.15 79.36 1.54L78.1-13.92 71.56-13.92 72.33-4.73 66.11-4.73 69.91-21.34 79.59-21.34 79.59-28.27 57.86-28.27 57.86-21.34 62.87-21.34 59.07-4.73 57.86-4.73 57.86 2.31 78.92 2.31C78.38 3.35 77.72 4.34 77.06 5.39ZM58.91-34.21L78.54-34.21 78.54-41.14 58.91-41.14Z" transform="translate(-1.809999942779541, 44.9900016784668)"></path></g> <!----> <!----> <!----> <!----> <!----> <!----> <!----></g></g> <g data-gra="path-slogan" fill-rule="" class="tp-slogan iconsvg-slogansvg" fill="#1dd165" transform="translate(4.999996185302734,56.4900016784668)"><rect x="0" height="1" y="3.9750003814697266" width="6.725002288818359"></rect> <rect height="1" y="3.9750003814697266" width="6.725002288818359" x="87.72500228881836"></rect> <g transform="translate(9.72500228881836,0)"><g transform="scale(1)"><path d="M0.19-1.92L0.19-2.77L1.27-2.77L1.27-2.16Q1.27-0.75 2.58-0.75L2.58-0.75Q3.94-0.75 3.94-2.25L3.94-2.25L3.94-8.58L5.11-8.58L5.11-2.30Q5.06 0.09 2.63 0.14L2.63 0.14Q0.33 0.09 0.19-1.92L0.19-1.92ZM13.69-4.27L13.69-4.27Q13.50-7.64 10.69-7.83L10.69-7.83Q7.83-7.69 7.69-4.27L7.69-4.27Q7.83-0.94 10.69-0.80L10.69-0.80Q13.50-0.98 13.69-4.27ZM14.86-4.27L14.86-4.27Q14.58 0 10.69 0.14L10.69 0.14Q6.75 0 6.47-4.27L6.47-4.27Q6.70-8.72 10.69-8.81L10.69-8.81Q14.58-8.67 14.86-4.27ZM23.16-8.58L19.92-3.47L19.92 0L18.75 0L18.75-3.47L15.52-8.58L16.88-8.58L19.31-4.45L21.80-8.58L23.16-8.58ZM33.80-6.09L33.80-6.09L32.72-6.09Q32.63-7.73 30.56-7.83L30.56-7.83Q28.64-7.78 28.64-6.33L28.64-6.33Q28.64-5.39 29.67-5.25L29.67-5.25L32.11-4.69Q34.03-4.22 34.03-2.34L34.03-2.34Q33.98 0.05 30.66 0.14L30.66 0.14Q28.83 0.14 28.08-0.61L28.08-0.61Q27.14-1.31 27.19-2.77L27.19-2.77L28.31-2.77Q28.36-0.80 30.66-0.75L30.66-0.75Q32.91-0.80 32.95-2.20L32.95-2.20Q33.14-3.38 31.08-3.75L31.08-3.75L29.30-4.13Q27.47-4.64 27.47-6.19L27.47-6.19Q27.61-8.72 30.47-8.81L30.47-8.81Q33.70-8.81 33.80-6.09ZM39.14-7.64L36.80-7.64L36.80-4.64L39.09-4.64Q40.88-4.64 40.88-6.19L40.88-6.19Q40.88-7.59 39.14-7.64L39.14-7.64ZM39.52-3.61L36.80-3.61L36.80 0L35.63 0L35.63-8.58L39.52-8.58Q41.95-8.48 42.05-6.19L42.05-6.19Q41.91-3.70 39.52-3.61L39.52-3.61ZM50.25-4.27L50.25-4.27Q50.06-7.64 47.25-7.83L47.25-7.83Q44.39-7.69 44.25-4.27L44.25-4.27Q44.39-0.94 47.25-0.80L47.25-0.80Q50.06-0.98 50.25-4.27ZM51.42-4.27L51.42-4.27Q51.14 0 47.25 0.14L47.25 0.14Q43.31 0 43.03-4.27L43.03-4.27Q43.27-8.72 47.25-8.81L47.25-8.81Q51.14-8.67 51.42-4.27ZM56.91-3.70L54.09-3.70L54.09 0L52.92 0L52.92-8.58L56.91-8.58Q59.77-8.58 59.77-6.28L59.77-6.28Q59.77-4.88 58.55-4.22L58.55-4.22Q59.58-3.94 59.58-2.58L59.58-2.58L59.67-1.03Q59.63-0.38 60.09-0.19L60.09-0.19L60.09 0L58.64 0Q58.50-0.61 58.45-2.16L58.45-2.16Q58.50-3.70 56.91-3.70L56.91-3.70ZM57-7.64L54.09-7.64L54.09-4.69L56.81-4.69Q58.55-4.69 58.55-6.19L58.55-6.19Q58.55-7.64 57-7.64L57-7.64ZM63.61-7.59L60.70-7.59L60.70-8.58L67.64-8.58L67.64-7.59L64.73-7.59L64.73 0L63.61 0L63.61-7.59ZM74.95-6.09L74.95-6.09L73.88-6.09Q73.78-7.73 71.72-7.83L71.72-7.83Q69.80-7.78 69.80-6.33L69.80-6.33Q69.80-5.39 70.83-5.25L70.83-5.25L73.27-4.69Q75.19-4.22 75.19-2.34L75.19-2.34Q75.14 0.05 71.81 0.14L71.81 0.14Q69.98 0.14 69.23-0.61L69.23-0.61Q68.30-1.31 68.34-2.77L68.34-2.77L69.47-2.77Q69.52-0.80 71.81-0.75L71.81-0.75Q74.06-0.80 74.11-2.20L74.11-2.20Q74.30-3.38 72.23-3.75L72.23-3.75L70.45-4.13Q68.63-4.64 68.63-6.19L68.63-6.19Q68.77-8.72 71.63-8.81L71.63-8.81Q74.86-8.81 74.95-6.09Z" transform="translate(-0.1875, 8.8125)"></path></g></g></g></g></g><defs v-gra="od"></defs></svg>