<?xml version="1.0" standalone="no"?>
<!DOCTYPE svg PUBLIC "-//W3C//DTD SVG 1.1//EN" "http://www.w3.org/Graphics/SVG/1.1/DTD/svg11.dtd"><svg height="3500"
    node-id="1" sillyvg="true" template-height="3500" template-width="4500" version="1.1" viewBox="0 0 4500 3500"
    width="4500" xmlns="http://www.w3.org/2000/svg" xmlns:xlink="http://www.w3.org/1999/xlink">
    <defs node-id="116"></defs>
    <path
        d="M 2340.94 415.37 C 2625.47 414.55 2976.19 495.20 3205.52 766.92 C 3313.12 894.42 3367.02 1014.22 3389.71 1124.94 C 3520.82 1235.01 3596.64 1397.37 3596.87 1568.56 C 3596.67 1674.43 3567.51 1778.23 3512.54 1868.72 C 3736.97 1954.68 3885.18 2170.09 3885.24 2410.42 C 3884.97 2572.16 3817.20 2726.44 3698.28 2836.06 C 3694.54 2842.15 3692.27 2845.49 3692.27 2845.49 L 3975.94 3092.98 L 475.94 3092.98 C 475.94 3092.98 617.12 3054.71 740.39 2989.32 C 664.29 2922.04 620.63 2825.39 620.46 2723.80 C 620.63 2577.35 710.66 2446.01 847.20 2393.04 C 731.98 2280.69 667.00 2126.59 666.98 1965.66 C 667.54 1754.02 780.10 1558.48 962.84 1451.72 C 927.30 1378.29 908.73 1297.81 908.50 1216.23 C 908.50 915.69 1152.14 672.05 1452.68 672.05 C 1520.20 672.05 1587.13 684.62 1650.05 709.11 C 1725.81 616.47 1817.09 554.71 1903.13 500.52 C 1971.87 457.23 2139.87 415.95 2340.94 415.37 L 2340.94 415.37 Z"
        fill="#f2f4ff" fill-rule="nonzero" id="path4409" node-id="4" stroke="none" target-height="2678.433"
        target-width="3500" target-x="475.936" target-y="414.547"></path>
    <path
        d="M 822.65 1970.26 C 976.20 1970.63 1110.66 2002.56 1187.57 2090.66 C 1461.01 2403.89 1410.82 2555.77 1745.70 2579.03 C 2080.59 2602.28 2303.54 2522.07 2426.95 2807.53 C 2529.84 3045.53 2870.27 2944.45 3042.62 3092.98 L 475.94 3092.98 C 475.94 3092.98 617.12 3054.71 740.40 2989.32 C 664.29 2922.04 620.63 2825.39 620.47 2723.80 C 620.63 2577.35 710.66 2446.01 847.20 2393.04 C 735.51 2283.86 671.05 2135.27 667.64 1979.12 C 720.45 1973.38 772.57 1970.14 822.65 1970.26 Z"
        fill="#e7eaff" fill-rule="nonzero" id="path4411" node-id="5" stroke="none" target-height="1122.84"
        target-width="2566.679" target-x="475.938" target-y="1970.139"></path>
    <path
        d="M 1008.49 1004.94 C 984.89 1004.94 971.19 1024.10 973.98 1047.54 L 1015.95 1399.83 C 1018.74 1423.27 1034.95 1442.43 1058.56 1442.43 L 1279.33 1442.43 C 1302.93 1442.43 1319.14 1423.27 1321.93 1399.83 L 1363.90 1047.54 C 1366.70 1024.10 1353.00 1004.94 1329.39 1004.94 L 1008.49 1004.94 Z"
        fill="#b7bbff" fill-rule="nonzero" id="path4631" node-id="6" stroke="none" target-height="437.49908"
        target-width="395.51" target-x="971.187" target-y="1004.936"></path>
    <path
        d="M 1168.94 722.60 C 1192.55 722.60 1211.55 741.60 1211.55 765.20 L 1211.55 850.41 C 1211.55 874.01 1192.55 893.02 1168.94 893.02 C 1145.34 893.02 1126.34 874.01 1126.34 850.41 L 1126.34 765.20 C 1126.34 741.60 1145.34 722.60 1168.94 722.60 Z"
        fill="#cecfff" fill-rule="nonzero" id="rect4624" node-id="7" stroke="none" target-height="170.42102"
        target-width="85.21094" target-x="1126.336" target-y="722.595"></path>
    <path
        d="M 1168.94 796.36 C 1069.60 796.36 989.62 876.34 989.62 975.68 L 989.62 997.30 L 1348.27 997.30 L 1348.27 975.68 C 1348.27 876.34 1268.29 796.36 1168.94 796.36 Z"
        fill="#b7bbff" fill-rule="nonzero" id="rect4619" node-id="8" stroke="none" target-height="200.945"
        target-width="358.649" target-x="989.618" target-y="796.36"></path>
    <path
        d="M 972.45 962.97 L 1365.44 962.97 C 1394.32 962.97 1417.58 986.22 1417.58 1015.11 C 1417.58 1044.00 1394.32 1067.25 1365.44 1067.25 L 972.45 1067.25 C 943.56 1067.25 920.30 1044.00 920.30 1015.11 C 920.30 986.22 943.56 962.97 972.45 962.97 L 972.45 962.97 Z"
        fill="#a5a3ff" fill-rule="nonzero" id="rect4617" node-id="9" stroke="none" target-height="104.289"
        target-width="497.27496" target-x="920.305" target-y="962.965"></path>
    <path
        d="M 1051.71 1114.72 L 1117.38 1114.72 C 1132.18 1114.72 1144.09 1126.63 1144.09 1141.43 L 1144.09 1297.82 C 1144.09 1312.61 1132.18 1324.53 1117.38 1324.53 L 1083.10 1324.53 C 1068.30 1324.53 1058.84 1312.41 1056.39 1297.82 L 1030.08 1141.43 C 1027.62 1126.84 1036.92 1114.72 1051.71 1114.72 Z"
        fill="#e3e1ff" fill-rule="nonzero" id="rect4626" node-id="10" stroke="none" target-height="209.80493"
        target-width="116.46704" target-x="1027.622" target-y="1114.722"></path>
    <path
        d="M 1290.96 1114.72 L 1225.29 1114.72 C 1210.50 1114.72 1198.58 1126.63 1198.58 1141.43 L 1198.58 1297.82 C 1198.58 1312.61 1210.50 1324.53 1225.29 1324.53 L 1259.58 1324.53 C 1274.37 1324.53 1283.83 1312.41 1286.29 1297.82 L 1312.60 1141.43 C 1315.05 1126.84 1305.76 1114.72 1290.96 1114.72 Z"
        fill="#e3e1ff" fill-rule="nonzero" id="path4629" node-id="11" stroke="none" target-height="209.80493"
        target-width="116.46704" target-x="1198.584" target-y="1114.722"></path>
    <path
        d="M 1160.68 1414.46 C 1137.07 1414.46 1118.07 1433.46 1118.07 1457.06 L 1118.07 3092.98 L 1229.99 3092.98 L 1229.99 1457.06 C 1229.99 1433.46 1210.99 1414.46 1187.38 1414.46 L 1160.68 1414.46 Z"
        fill="#b7bbff" fill-rule="nonzero" id="rect4640" node-id="12" stroke="none" target-height="1678.522"
        target-width="111.91797" target-x="1118.072" target-y="1414.456"></path>
    <path
        d="M 991.53 1381.39 L 1356.53 1381.39 C 1385.42 1381.39 1408.68 1404.64 1408.68 1433.53 C 1408.68 1462.42 1385.42 1485.68 1356.53 1485.68 L 991.53 1485.68 C 962.64 1485.68 939.38 1462.42 939.38 1433.53 C 939.38 1404.64 962.64 1381.39 991.53 1381.39 Z"
        fill="#cecfff" fill-rule="nonzero" id="rect4636" node-id="13" stroke="none" target-height="104.287964"
        target-width="469.29498" target-x="939.382" target-y="1381.389"></path>
    <path
        d="M 2547.94 2593.12 L 2549.16 2524.97 L 2483.52 2524.97 L 2460.25 2524.97 L 2457.15 2617.03 L 2547.94 2593.12 Z"
        fill="#f6c6c0" fill-rule="nonzero" id="path913-3" node-id="14" stroke="none" target-height="92.05493"
        target-width="92.01196" target-x="2457.152" target-y="2524.971"></path>
    <path
        d="M 3737.11 1797.49 C 3737.11 1951.81 3612.00 2076.92 3457.67 2076.92 C 3303.34 2076.92 3178.24 1951.82 3178.24 1797.49 L 3178.24 1797.49 C 3178.24 1643.16 3303.34 1518.05 3457.67 1518.05 C 3612.00 1518.05 3737.11 1643.16 3737.11 1797.49 Z"
        fill="#a5a3ff" fill-rule="nonzero" id="circle10041-1" node-id="15" stroke="none" target-height="558.8711"
        target-width="558.8699" target-x="3178.237" target-y="1518.051"></path>
    <path
        d="M 3584.36 1536.52 C 3603.76 1536.52 3619.38 1575.91 3619.38 1624.85 L 3619.38 2954.00 C 3619.38 3002.93 3603.76 3042.33 3584.36 3042.33 C 3564.95 3042.33 3549.33 3002.93 3549.33 2954.00 L 3549.33 1624.85 C 3549.33 1575.91 3564.95 1536.52 3584.36 1536.52 L 3584.36 1536.52 Z"
        fill="#a5a3ff" fill-rule="nonzero" id="rect10081-1" node-id="16" stroke="none" target-height="1505.8141"
        target-width="70.04712" target-x="3549.334" target-y="1536.518"></path>
    <path
        d="M 3885.09 1327.94 C 3885.09 1502.14 3743.88 1643.35 3569.68 1643.35 C 3395.49 1643.35 3254.28 1502.14 3254.28 1327.94 C 3254.28 1153.75 3395.49 1012.53 3569.68 1012.53 L 3569.68 1012.53 C 3743.88 1012.53 3885.09 1153.75 3885.09 1327.94 L 3885.09 1327.94 Z"
        fill="#e3e1ff" fill-rule="nonzero" id="path10037-8" node-id="17" stroke="none" target-height="630.814"
        target-width="630.81396" target-x="3254.278" target-y="1012.535"></path>
    <path
        d="M 3975.94 1660.79 C 3975.94 1815.12 3850.83 1940.23 3696.50 1940.23 C 3542.18 1940.23 3417.07 1815.12 3417.07 1660.79 C 3417.07 1506.46 3542.18 1381.36 3696.50 1381.36 C 3850.83 1381.36 3975.94 1506.46 3975.94 1660.79 Z"
        fill="#b7bbff" fill-rule="nonzero" id="circle10039-2" node-id="18" stroke="none" target-height="558.871"
        target-width="558.8699" target-x="3417.068" target-y="1381.358"></path>
    <path
        d="M 3407.72 2849.20 L 3436.55 3039.59 C 3440.55 3068.90 3460.36 3092.98 3489.94 3092.98 L 3728.74 3092.98 C 3758.32 3092.98 3777.59 3068.82 3782.13 3039.59 L 3809.31 2849.20 L 3407.72 2849.20 Z"
        fill="#cecfff" fill-rule="nonzero" id="path10055-8" node-id="19" stroke="none" target-height="243.78198"
        target-width="401.59302" target-x="3407.715" target-y="2849.197"></path>
    <path d="M 3407.72 2849.20 L 3415.89 2904.47 L 3801.51 2904.47 L 3809.31 2849.20 L 3407.72 2849.20 Z" fill="#b7bbff"
        fill-rule="nonzero" id="path10057-3" node-id="20" stroke="none" target-height="55.268066"
        target-width="401.5918" target-x="3407.715" target-y="2849.197"></path>
    <path
        d="M 3789.12 2444.51 C 3806.31 2453.51 3801.87 2495.66 3779.17 2539.01 L 3665.26 2756.56 C 3642.56 2799.92 3610.45 2827.57 3593.26 2818.57 C 3576.07 2809.57 3580.51 2767.42 3603.21 2724.07 L 3717.12 2506.52 C 3739.82 2463.16 3771.93 2435.51 3789.12 2444.51 Z"
        fill="#a5a3ff" fill-rule="nonzero" id="rect10089-1" node-id="21" stroke="none" target-height="392.06396"
        target-width="230.24097" target-x="3576.069" target-y="2435.508"></path>
    <path
        d="M 3396.26 2757.68 L 3823.74 2757.68 C 3853.32 2757.68 3877.13 2781.49 3877.13 2811.07 C 3877.13 2840.65 3853.32 2864.46 3823.74 2864.46 L 3396.26 2864.46 C 3366.68 2864.46 3342.87 2840.65 3342.87 2811.07 C 3342.87 2781.49 3366.68 2757.68 3396.26 2757.68 Z"
        fill="#cecfff" fill-rule="nonzero" id="path10059-12" node-id="22" stroke="none" target-height="106.778076"
        target-width="534.2529" target-x="3342.873" target-y="2757.682"></path>
    <path
        d="M 3935.50 2478.36 C 3935.50 2535.78 3888.95 2582.33 3831.53 2582.33 L 3831.53 2582.33 C 3774.11 2582.33 3727.57 2535.78 3727.57 2478.36 L 3727.57 2478.36 C 3727.57 2420.94 3774.11 2374.40 3831.53 2374.40 C 3888.95 2374.40 3935.50 2420.94 3935.50 2478.36 L 3935.50 2478.36 Z"
        fill="#a5a3ff" fill-rule="nonzero" id="circle10083-8" node-id="23" stroke="none" target-height="207.93091"
        target-width="207.93091" target-x="3727.568" target-y="2374.397"></path>
    <path
        d="M 3929.73 2279.12 C 3929.73 2369.72 3856.29 2443.16 3765.69 2443.16 L 3765.69 2443.16 C 3675.09 2443.16 3601.64 2369.72 3601.64 2279.12 C 3601.64 2188.52 3675.09 2115.08 3765.69 2115.08 C 3856.28 2115.08 3929.73 2188.52 3929.73 2279.12 Z"
        fill="#e3e1ff" fill-rule="nonzero" id="circle10085-3" node-id="24" stroke="none" target-height="328.083"
        target-width="328.08398" target-x="3601.645" target-y="2115.078"></path>
    <path
        d="M 3788.13 2441.44 C 3788.13 2521.71 3723.06 2586.78 3642.79 2586.78 C 3562.53 2586.78 3497.46 2521.71 3497.46 2441.44 C 3497.46 2361.18 3562.53 2296.11 3642.79 2296.11 C 3723.06 2296.11 3788.13 2361.18 3788.13 2441.44 L 3788.13 2441.44 Z"
        fill="#b7bbff" fill-rule="nonzero" id="circle10087-0" node-id="25" stroke="none" target-height="290.66602"
        target-width="290.667" target-x="3497.459" target-y="2296.109"></path>
    <path d="M 3181.61 1736.71 L 3126.34 1804.03 L 3057.56 1702.02 L 3104.33 1638.05 L 3181.61 1736.71 Z" fill="#ffffff"
        fill-rule="nonzero" id="path31001" node-id="26" stroke="none" target-height="165.97998" target-width="124.05493"
        target-x="3057.558" target-y="1638.045"></path>
    <path
        d="M 3069.22 1624.44 C 3062.49 1624.29 3053.57 1626.78 3042.04 1632.98 C 3029.52 1638.24 3018.49 1642.74 3008.89 1646.94 L 3002.25 1841.17 C 3030.31 1846.46 3060.74 1851.42 3069.94 1850.02 C 3078.62 1848.10 3087.10 1844.54 3095.17 1839.74 C 3087.61 1799.93 3067.67 1688.71 3067.67 1688.71 C 3086.45 1675.38 3098.39 1625.09 3069.22 1624.44 L 3069.22 1624.44 Z"
        fill="#f6cdc1" fill-rule="nonzero" id="path30991" node-id="27" stroke="none" target-height="227.13293"
        target-width="96.14111" target-x="3002.254" target-y="1624.286"></path>
    <path
        d="M 2656.60 1624.44 C 2663.33 1624.29 2672.25 1626.78 2683.78 1632.98 C 2696.30 1638.24 2707.33 1642.74 2716.93 1646.94 L 2723.57 1841.17 C 2695.51 1846.46 2665.08 1851.42 2655.89 1850.02 C 2647.21 1848.10 2638.73 1844.54 2630.66 1839.74 C 2638.21 1799.93 2658.15 1688.71 2658.15 1688.71 C 2639.37 1675.38 2627.43 1625.09 2656.60 1624.44 L 2656.60 1624.44 Z"
        fill="#f6cdc1" fill-rule="nonzero" id="path31021" node-id="28" stroke="none" target-height="227.13293"
        target-width="96.14111" target-x="2627.428" target-y="1624.286"></path>
    <path
        d="M 2870.10 933.56 C 2822.67 933.96 2780.78 962.33 2734.20 985.20 C 2687.81 1009.86 2639.36 1032.23 2606.28 1080.25 C 2548.75 1164.33 2435.36 1411.58 2435.36 1411.58 C 2435.36 1411.58 2403.96 1470.89 2430.71 1536.00 C 2451.64 1573.21 2544.21 1736.71 2544.21 1736.71 L 2621.50 1638.05 L 2556.29 1499.96 L 2684.80 1299.59 C 2685.29 1304.41 2685.76 1309.19 2686.15 1313.89 L 2667.96 1719.97 L 3038.18 1719.97 L 3095.22 1488.10 C 3113.74 1408.78 3132.29 1346.54 3162.29 1283.05 L 3252.47 1410.51 L 3104.33 1638.05 L 3181.61 1736.71 C 3181.61 1736.71 3322.37 1564.85 3373.64 1498.66 C 3409.58 1452.25 3417.92 1402.15 3404.76 1346.24 C 3395.87 1308.44 3332.94 1180.75 3289.34 1101.24 C 3266.17 1058.65 3246.73 1026.06 3189.31 1003.33 L 3033.95 932.26 L 2912.77 943.78 C 2897.46 936.44 2883.38 933.45 2870.10 933.56 L 2870.10 933.56 Z"
        fill="#6584f7" fill-rule="nonzero" id="path888-0" node-id="29" stroke="none" target-height="804.44904"
        target-width="1013.958" target-x="2403.961" target-y="932.263"></path>
    <path d="M 2826.21 682.20 L 2802.14 743.07 C 2717.47 733.88 2756.41 541.82 2826.21 682.20 Z" fill="#f69cb3"
        fill-rule="nonzero" id="path883-65" node-id="30" stroke="none" target-height="201.25098"
        target-width="108.73804" target-x="2717.469" target-y="541.818"></path>
    <path
        d="M 2789.28 545.95 C 2789.28 545.95 2761.45 551.97 2746.40 578.30 C 2731.35 604.64 2781.01 689.65 2781.01 689.65 L 2789.28 545.95 Z"
        fill="#3d3d3d" fill-rule="nonzero" id="path876-3" node-id="31" stroke="none" target-height="143.698"
        target-width="57.93091" target-x="2731.353" target-y="545.953"></path>
    <path
        d="M 3023.26 528.65 C 3023.26 528.65 3062.39 526.39 3072.92 575.29 C 3083.45 624.20 3040.57 717.49 3040.57 717.49 C 3048.00 784.03 3025.76 837.23 2967.59 775.42 C 2941.26 745.33 2925.46 579.06 2925.46 579.06 C 2925.46 579.06 2820.09 595.59 2776.47 562.50 C 2732.86 529.40 2686.21 430.35 2746.40 411.41 C 2806.59 392.47 2820.38 435.32 2950.03 429.56 C 3017.75 426.55 3045.84 482.00 3023.26 528.65 L 3023.26 528.65 Z"
        fill="#3d3d3d" fill-rule="nonzero" id="path874-75" node-id="32" stroke="none" target-height="444.75598"
        target-width="397.24097" target-x="2686.212" target-y="392.474"></path>
    <path
        d="M 3020.26 743.07 C 3020.26 743.07 3014.24 825.83 3015.74 861.94 C 3017.25 898.05 3016.49 917.61 3016.49 917.61 L 2928.26 997.83 L 2882.20 954.85 L 2907.10 861.91 L 3020.26 743.07 Z"
        fill="#f6c6c0" fill-rule="nonzero" id="path885-6" node-id="33" stroke="none" target-height="254.76202"
        target-width="138.05713" target-x="2882.199" target-y="743.068"></path>
    <path
        d="M 3020.26 743.07 L 2907.10 861.91 L 2888.27 932.21 C 2906.60 936.05 2926.67 935.33 2941.26 921.37 C 2975.87 888.27 2986.40 804.01 2986.40 804.01 L 3020.26 743.07 Z"
        fill="#f69cb3" fill-rule="nonzero" id="path887-7" node-id="34" stroke="none" target-height="192.97803"
        target-width="131.98804" target-x="2888.268" target-y="743.068"></path>
    <path
        d="M 3020.26 743.07 C 3104.93 733.88 3065.98 541.82 2996.18 682.19 C 2977.43 650.84 2938.18 604.91 2959.48 544.41 C 2896.42 564.95 2844.12 580.85 2776.47 562.50 C 2749.53 857.11 2897.37 1036.22 3020.26 743.07 Z"
        fill="#f6c6c0" fill-rule="nonzero" id="path870-64" node-id="35" stroke="none" target-height="494.40198"
        target-width="355.39307" target-x="2749.532" target-y="541.818"></path>
    <path
        d="M 3016.49 703.19 C 3016.12 701.69 3020.63 679.87 3033.05 664.82 C 3045.46 649.78 3055.99 667.83 3055.99 667.83 C 3055.99 667.83 3044.71 664.45 3038.31 674.98 C 3031.92 685.51 3053.36 698.68 3033.42 711.47 C 3013.48 724.26 3016.49 703.19 3016.49 703.19 Z"
        fill="#f69cb3" fill-rule="nonzero" id="path894-2" node-id="36" stroke="none" target-height="74.48297"
        target-width="42.508057" target-x="3013.484" target-y="649.776"></path>
    <path
        d="M 2928.26 997.83 L 3016.44 909.65 L 3016.08 879.46 C 3046.93 901.17 3056.64 920.24 3051.80 938.42 L 2990.13 1069.16 L 2928.26 997.83 Z"
        fill="#ffffff" fill-rule="nonzero" id="path881-6" node-id="37" stroke="none" target-height="189.695"
        target-width="128.38403" target-x="2928.26" target-y="879.462"></path>
    <path
        d="M 2882.20 954.85 L 2897.39 898.26 C 2865.18 905.94 2819.87 931.87 2827.28 961.67 C 2829.66 970.48 2866.81 1066.32 2866.81 1066.32 L 2928.26 997.83 L 2882.20 954.85 Z"
        fill="#ffffff" fill-rule="nonzero" id="path884-2" node-id="38" stroke="none" target-height="168.06305"
        target-width="108.38989" target-x="2819.87" target-y="898.258"></path>
    <path
        d="M 2668.47 1747.31 L 2398.36 1987.30 C 2370.62 2022.75 2351.42 2049.71 2366.61 2131.49 L 2460.25 2524.97 L 2549.16 2524.97 L 2539.13 2110.27 L 2834.60 2034.91 L 3086.18 2709.26 L 3151.76 2941.82 L 3241.92 2941.82 L 3208.19 2709.26 L 3044.55 1773.65 L 2668.47 1747.31 Z"
        fill="#ff6853" fill-rule="nonzero" id="path16354-6" node-id="39" stroke="none" target-height="1194.5029"
        target-width="890.50415" target-x="2351.418" target-y="1747.312"></path>
    <path d="M 2542.95 2287.85 L 2404.33 2288.93 L 2460.25 2524.97 L 2549.16 2524.97 L 2542.95 2287.85 Z" fill="#e0523c"
        fill-rule="nonzero" id="path935-3" node-id="40" stroke="none" target-height="237.11597" target-width="144.83203"
        target-x="2404.332" target-y="2287.854"></path>
    <path d="M 3208.19 2709.26 L 3086.17 2709.26 L 3151.76 2941.82 L 3241.92 2941.82 L 3208.19 2709.26 Z" fill="#e0523c"
        fill-rule="nonzero" id="path933-2" node-id="41" stroke="none" target-height="232.55786" target-width="155.74683"
        target-x="3086.173" target-y="2709.259"></path>
    <path d="M 2834.60 2034.91 L 2786.12 1931.11 L 2752.86 1948.92 L 2745.36 2057.66 L 2834.60 2034.91 Z" fill="#e0523c"
        fill-rule="nonzero" id="path925-8" node-id="42" stroke="none" target-height="126.54907" target-width="89.24121"
        target-x="2745.359" target-y="1931.113"></path>
    <path d="M 2667.96 1719.97 L 2667.99 1747.28 L 3044.55 1773.65 L 3038.18 1719.97 L 2667.96 1719.97 Z" fill="#ffffff"
        fill-rule="nonzero" id="path927-3" node-id="43" stroke="none" target-height="53.68396" target-width="376.59497"
        target-x="2667.957" target-y="1719.969"></path>
    <g node-id="118">
        <path
            d="M 2664.86 2884.00 L 2664.62 2893.94 L 2663.93 2903.69 L 2662.80 2913.26 L 2661.25 2922.67 L 2659.26 2931.92 L 2656.84 2941.13 L 2654.03 2950.12 L 2650.84 2958.91 L 2647.28 2967.50 L 2643.32 2975.91 L 2637.85 2986.17 L 2631.86 2996.05 L 2625.35 3005.56 L 2618.31 3014.71 L 2610.77 3023.46 L 2602.80 3031.77 L 2594.38 3039.63 L 2585.49 3047.07 L 2576.22 3054.01 L 2566.58 3060.43 L 2556.56 3066.33 L 2546.14 3071.74 L 2537.63 3075.63 L 2528.92 3079.15 L 2520.01 3082.30 L 2510.88 3085.07 L 2501.54 3087.46 L 2492.16 3089.42 L 2482.62 3090.95 L 2472.92 3092.06 L 2463.03 3092.74 L 2452.95 3092.98 L 2442.88 3092.74 L 2432.99 3092.06 L 2423.28 3090.95 L 2413.75 3089.42 L 2404.36 3087.46 L 2395.02 3085.07 L 2385.90 3082.30 L 2376.99 3079.15 L 2368.28 3075.63 L 2359.76 3071.74 L 2349.34 3066.33 L 2339.32 3060.43 L 2329.69 3054.01 L 2320.42 3047.07 L 2311.53 3039.63 L 2303.11 3031.77 L 2295.13 3023.46 L 2287.60 3014.71 L 2280.56 3005.56 L 2274.05 2996.05 L 2268.06 2986.17 L 2262.58 2975.91 L 2258.63 2967.50 L 2255.06 2958.91 L 2251.87 2950.12 L 2249.07 2941.13 L 2246.64 2931.92 L 2244.66 2922.67 L 2243.10 2913.26 L 2241.98 2903.69 L 2241.29 2893.94 L 2241.05 2884.00 L 2241.29 2874.07 L 2241.98 2864.32 L 2243.10 2854.75 L 2244.66 2845.34 L 2246.64 2836.09 L 2249.07 2826.88 L 2251.87 2817.89 L 2255.06 2809.10 L 2258.63 2800.51 L 2262.58 2792.10 L 2268.06 2781.84 L 2274.05 2771.96 L 2280.56 2762.45 L 2287.60 2753.30 L 2295.13 2744.55 L 2303.11 2736.24 L 2311.53 2728.38 L 2320.42 2720.94 L 2329.69 2714.00 L 2339.32 2707.58 L 2349.34 2701.67 L 2359.76 2696.27 L 2368.28 2692.37 L 2376.99 2688.85 L 2385.90 2685.71 L 2395.02 2682.94 L 2404.36 2680.55 L 2413.75 2678.59 L 2423.28 2677.06 L 2432.99 2675.95 L 2442.88 2675.27 L 2452.95 2675.03 L 2463.03 2675.27 L 2472.92 2675.95 L 2482.62 2677.06 L 2492.16 2678.59 L 2501.54 2680.55 L 2510.88 2682.94 L 2520.01 2685.71 L 2528.92 2688.85 L 2537.63 2692.37 L 2546.14 2696.27 L 2556.56 2701.67 L 2566.58 2707.58 L 2576.22 2714.00 L 2585.49 2720.94 L 2594.38 2728.38 L 2602.80 2736.24 L 2610.77 2744.55 L 2618.31 2753.30 L 2625.35 2762.45 L 2631.86 2771.96 L 2637.85 2781.84 L 2643.32 2792.10 L 2647.28 2800.51 L 2650.84 2809.10 L 2654.03 2817.89 L 2656.84 2826.88 L 2659.26 2836.09 L 2661.25 2845.34 L 2662.80 2854.75 L 2663.93 2864.32 L 2664.62 2874.07 L 2664.86 2884.00 L 2664.86 2884.00 L 2664.86 2884.00 Z"
            fill="#cecfff" fill-rule="nonzero" group-id="1" id="path23691" node-id="45" stroke="none"
            target-height="417.95093" target-width="423.81372" target-x="2241.0464" target-y="2675.028"></path>
        <path
            d="M 2452.95 2675.03 L 2450.73 2675.27 L 2448.70 2675.86 L 2446.82 2676.79 L 2445.13 2678.02 L 2443.70 2679.50 L 2442.51 2681.23 L 2441.63 2683.13 L 2441.11 2685.18 L 2440.93 2687.41 L 2440.93 2885.81 L 2441.11 2888.04 L 2441.63 2890.09 L 2442.51 2891.99 L 2443.70 2893.72 L 2445.13 2895.20 L 2446.83 2896.43 L 2448.71 2897.36 L 2450.74 2897.95 L 2452.97 2898.19 L 2455.20 2898.01 L 2457.25 2897.48 L 2459.15 2896.61 L 2460.88 2895.42 L 2462.36 2893.99 L 2463.59 2892.29 L 2464.52 2890.41 L 2465.11 2888.38 L 2465.35 2886.15 L 2465.35 2885.81 L 2465.35 2687.41 L 2465.17 2685.17 L 2464.64 2683.12 L 2463.77 2681.22 L 2462.58 2679.49 L 2461.14 2678.02 L 2459.45 2676.78 L 2457.57 2675.85 L 2455.53 2675.27 L 2453.31 2675.03 L 2452.95 2675.03 Z"
            fill="#f2f4ff" fill-rule="nonzero" group-id="1" id="path23708" node-id="46" stroke="none"
            target-height="223.16089" target-width="24.417969" target-x="2440.9302" target-y="2675.028"></path>
        <path
            d="M 2293.92 2799.82 L 2292.81 2801.76 L 2292.10 2803.75 L 2291.75 2805.82 L 2291.76 2807.92 L 2292.12 2809.94 L 2292.82 2811.92 L 2293.85 2813.74 L 2295.20 2815.37 L 2296.91 2816.82 L 2381.42 2877.92 L 2383.54 2879.22 L 2385.53 2880.06 L 2387.44 2880.49 L 2389.29 2880.56 L 2391.77 2880.16 L 2394.01 2879.29 L 2396.07 2877.94 L 2397.86 2876.22 L 2399.27 2874.26 L 2400.35 2872.03 L 2400.98 2869.65 L 2401.10 2867.25 L 2400.70 2864.77 L 2400.06 2863.04 L 2399.05 2861.36 L 2397.63 2859.73 L 2395.73 2858.13 L 2311.21 2797.03 L 2309.26 2795.84 L 2307.25 2795.07 L 2305.15 2794.67 L 2303.02 2794.65 L 2300.95 2794.98 L 2298.93 2795.68 L 2297.06 2796.71 L 2295.40 2798.08 L 2293.92 2799.82 Z"
            fill="#f2f4ff" fill-rule="nonzero" group-id="1" id="path23718" node-id="47" stroke="none"
            target-height="85.90869" target-width="109.345215" target-x="2291.7524" target-y="2794.647"></path>
        <path
            d="M 2613.21 2801.73 L 2614.32 2803.67 L 2615.03 2805.66 L 2615.38 2807.73 L 2615.37 2809.83 L 2615.01 2811.85 L 2614.31 2813.82 L 2613.28 2815.65 L 2611.93 2817.28 L 2610.22 2818.72 L 2525.71 2879.82 L 2523.59 2881.13 L 2521.60 2881.97 L 2519.69 2882.40 L 2517.84 2882.46 L 2515.36 2882.06 L 2513.12 2881.20 L 2511.06 2879.85 L 2509.27 2878.13 L 2507.86 2876.17 L 2506.79 2873.94 L 2506.15 2871.56 L 2506.03 2869.16 L 2506.43 2866.68 L 2507.07 2864.95 L 2508.08 2863.27 L 2509.50 2861.64 L 2511.40 2860.04 L 2595.92 2798.94 L 2597.87 2797.75 L 2599.88 2796.97 L 2601.98 2796.58 L 2604.12 2796.55 L 2606.18 2796.89 L 2608.20 2797.59 L 2610.07 2798.62 L 2611.73 2799.99 L 2613.21 2801.73 Z"
            fill="#f2f4ff" fill-rule="nonzero" group-id="1" id="path23720" node-id="48" stroke="none"
            target-height="85.90967" target-width="109.34473" target-x="2506.0332" target-y="2796.555"></path>
        <path
            d="M 2429.33 2926.90 L 2427.39 2925.79 L 2425.40 2925.08 L 2423.33 2924.73 L 2421.24 2924.74 L 2419.21 2925.10 L 2417.24 2925.80 L 2415.41 2926.83 L 2413.79 2928.18 L 2412.34 2929.88 L 2351.24 3014.40 L 2349.93 3016.52 L 2349.10 3018.51 L 2348.66 3020.42 L 2348.60 3022.27 L 2349.00 3024.74 L 2349.86 3026.99 L 2351.21 3029.05 L 2352.93 3030.84 L 2354.89 3032.25 L 2357.12 3033.32 L 2359.50 3033.96 L 2361.90 3034.08 L 2364.38 3033.68 L 2366.12 3033.04 L 2367.79 3032.03 L 2369.42 3030.61 L 2371.03 3028.71 L 2432.13 2944.19 L 2433.31 2942.24 L 2434.09 2940.23 L 2434.48 2938.13 L 2434.51 2935.99 L 2434.17 2933.93 L 2433.47 2931.91 L 2432.44 2930.04 L 2431.07 2928.38 L 2429.33 2926.90 L 2429.33 2926.90 Z"
            fill="#f2f4ff" fill-rule="nonzero" group-id="1" id="path23726" node-id="49" stroke="none"
            target-height="109.345215" target-width="85.907715" target-x="2348.598" target-y="2924.73"></path>
        <path
            d="M 2468.89 2926.90 L 2470.84 2925.79 L 2472.83 2925.08 L 2474.89 2924.73 L 2476.99 2924.74 L 2479.01 2925.10 L 2480.99 2925.80 L 2482.81 2926.83 L 2484.44 2928.18 L 2485.89 2929.88 L 2546.99 3014.40 L 2548.29 3016.52 L 2549.13 3018.51 L 2549.57 3020.42 L 2549.63 3022.27 L 2549.23 3024.75 L 2548.36 3026.99 L 2547.02 3029.05 L 2545.30 3030.84 L 2543.34 3032.25 L 2541.10 3033.32 L 2538.73 3033.96 L 2536.32 3034.08 L 2533.85 3033.68 L 2532.11 3033.04 L 2530.44 3032.03 L 2528.80 3030.61 L 2527.20 3028.71 L 2466.10 2944.19 L 2464.92 2942.24 L 2464.14 2940.23 L 2463.75 2938.13 L 2463.72 2935.99 L 2464.05 2933.93 L 2464.75 2931.91 L 2465.79 2930.04 L 2467.16 2928.38 L 2468.89 2926.90 L 2468.89 2926.90 Z"
            fill="#f2f4ff" fill-rule="nonzero" group-id="1" id="path23728" node-id="50" stroke="none"
            target-height="109.345215" target-width="85.908936" target-x="2463.7212" target-y="2924.73"></path>
        <path
            d="M 2501.58 2958.06 L 2499.72 2958.95 L 2496.36 2959.80 L 2492.56 2960.37 L 2487.81 2960.83 L 2477.52 2961.32 L 2467.11 2961.46 L 2458.21 2961.40 L 2452.42 2961.33 L 2446.63 2961.33 L 2437.72 2961.29 L 2427.32 2961.04 L 2417.04 2960.43 L 2412.29 2959.92 L 2408.49 2959.30 L 2405.15 2958.42 L 2403.30 2957.50 L 2401.88 2956.01 L 2400.03 2953.08 L 2398.31 2949.64 L 2396.41 2945.26 L 2392.76 2935.63 L 2389.42 2925.78 L 2386.72 2917.29 L 2385.00 2911.76 L 2383.20 2906.26 L 2380.49 2897.77 L 2377.52 2887.80 L 2374.92 2877.84 L 2373.94 2873.16 L 2373.35 2869.36 L 2373.16 2865.91 L 2373.46 2863.87 L 2374.44 2862.05 L 2376.65 2859.39 L 2379.40 2856.69 L 2382.97 2853.53 L 2391.01 2847.08 L 2399.34 2840.86 L 2406.58 2835.67 L 2411.31 2832.33 L 2415.99 2828.92 L 2423.22 2823.72 L 2431.78 2817.81 L 2440.46 2812.26 L 2444.60 2809.88 L 2448.03 2808.15 L 2451.26 2806.90 L 2453.29 2806.55 L 2455.32 2806.92 L 2458.53 2808.21 L 2461.95 2809.98 L 2466.06 2812.40 L 2474.68 2818.05 L 2483.17 2824.06 L 2490.34 2829.34 L 2494.98 2832.80 L 2499.67 2836.20 L 2506.85 2841.47 L 2515.12 2847.78 L 2523.08 2854.32 L 2526.62 2857.52 L 2529.33 2860.26 L 2531.51 2862.94 L 2532.47 2864.76 L 2532.75 2866.81 L 2532.52 2870.26 L 2531.89 2874.06 L 2530.85 2878.72 L 2528.15 2888.66 L 2525.06 2898.59 L 2522.25 2907.04 L 2520.39 2912.53 L 2518.61 2918.04 L 2515.82 2926.49 L 2512.36 2936.31 L 2508.61 2945.90 L 2506.65 2950.25 L 2504.89 2953.68 L 2503.02 2956.58 L 2501.58 2958.06 L 2501.58 2958.06 Z"
            fill="#a5a3ff" fill-rule="nonzero" group-id="1" id="path23693" node-id="51" stroke="none"
            target-height="154.90552" target-width="159.58203" target-x="2373.164" target-y="2806.551"></path>
        <path
            d="M 2366.92 2999.71 L 2359.18 3000.02 L 2351.25 3000.65 L 2344.43 3001.32 L 2340.01 3001.79 L 2334.59 3002.30 L 2326.23 3003.16 L 2316.99 3004.39 L 2312.56 3005.18 L 2308.96 3006.00 L 2305.81 3007.04 L 2304.19 3007.98 L 2303.20 3009.25 L 2301.99 3011.71 L 2300.91 3014.56 L 2299.76 3018.15 L 2297.67 3025.93 L 2304.16 3032.55 L 2310.90 3038.85 L 2317.89 3044.84 L 2325.15 3050.52 L 2332.64 3055.88 L 2340.35 3060.91 L 2348.27 3065.59 L 2356.42 3069.95 L 2364.75 3073.94 L 2373.24 3077.58 L 2381.92 3080.85 L 2390.78 3083.76 L 2397.41 3077.43 L 2400.46 3074.26 L 2402.83 3071.53 L 2404.72 3068.90 L 2405.46 3067.22 L 2405.48 3065.34 L 2404.85 3062.09 L 2403.80 3058.54 L 2402.31 3054.30 L 2398.86 3045.64 L 2395.51 3037.93 L 2393.30 3032.96 L 2391.14 3027.97 L 2387.74 3020.28 L 2383.71 3011.88 L 2381.60 3007.91 L 2379.70 3004.73 L 2377.74 3002.06 L 2376.34 3000.81 L 2375.02 3000.31 L 2372.72 2999.93 L 2370.14 2999.75 L 2366.92 2999.71 L 2366.92 2999.71 Z"
            fill="#a5a3ff" fill-rule="nonzero" group-id="1" id="path23695" node-id="52" stroke="none"
            target-height="84.048096" target-width="107.81128" target-x="2297.6724" target-y="2999.711"></path>
        <path
            d="M 2452.95 2675.03 L 2443.81 2675.24 L 2434.70 2675.84 L 2425.63 2676.83 L 2416.61 2678.20 L 2407.66 2679.95 L 2398.78 2682.09 L 2397.59 2686.43 L 2396.79 2690.04 L 2396.39 2693.34 L 2396.55 2695.21 L 2397.42 2696.86 L 2399.55 2699.41 L 2402.17 2702.02 L 2405.52 2705.02 L 2412.71 2710.95 L 2419.35 2716.10 L 2423.68 2719.39 L 2427.97 2722.74 L 2434.65 2727.84 L 2442.22 2733.27 L 2445.98 2735.74 L 2449.17 2737.61 L 2452.18 2739.01 L 2454.00 2739.44 L 2455.85 2739.11 L 2458.93 2737.88 L 2462.21 2736.19 L 2466.11 2733.94 L 2473.97 2728.93 L 2480.92 2724.21 L 2485.39 2721.11 L 2489.90 2718.06 L 2496.81 2713.28 L 2504.32 2707.76 L 2507.83 2704.95 L 2510.59 2702.49 L 2512.85 2700.07 L 2513.82 2698.46 L 2514.06 2697.16 L 2514.04 2695.03 L 2513.30 2689.77 L 2511.90 2683.44 L 2502.26 2680.90 L 2492.54 2678.81 L 2482.73 2677.18 L 2472.85 2676.00 L 2462.93 2675.29 L 2452.95 2675.03 L 2452.95 2675.03 Z M 2303.05 2736.49 L 2296.47 2743.32 L 2290.24 2750.39 L 2284.35 2757.69 L 2278.81 2765.26 L 2273.61 2773.06 L 2268.78 2781.06 L 2264.32 2789.27 L 2260.22 2797.68 L 2256.51 2806.27 L 2253.19 2815.01 L 2250.26 2823.92 L 2247.73 2832.99 L 2252.50 2837.91 L 2254.79 2840.05 L 2256.72 2841.66 L 2258.60 2842.93 L 2259.87 2843.48 L 2261.74 2843.54 L 2265.01 2842.98 L 2268.58 2842.00 L 2272.86 2840.61 L 2281.58 2837.34 L 2289.36 2834.16 L 2294.38 2832.05 L 2299.42 2830.00 L 2307.17 2826.76 L 2315.66 2822.92 L 2319.67 2820.89 L 2322.89 2819.06 L 2325.60 2817.15 L 2326.88 2815.78 L 2327.52 2814.02 L 2327.99 2810.74 L 2328.17 2807.05 L 2328.16 2802.55 L 2327.75 2793.24 L 2327.13 2784.86 L 2326.67 2779.43 L 2326.29 2774.01 L 2325.60 2765.63 L 2324.56 2756.37 L 2323.88 2751.93 L 2323.13 2748.30 L 2322.15 2745.13 L 2321.25 2743.49 L 2319.97 2742.46 L 2317.48 2741.18 L 2314.58 2740.02 L 2310.94 2738.78 L 2303.05 2736.49 L 2303.05 2736.49 Z M 2603.33 2736.90 L 2596.04 2739.07 L 2592.72 2740.24 L 2590.10 2741.33 L 2587.85 2742.53 L 2586.67 2743.50 L 2585.77 2745.13 L 2584.79 2748.31 L 2584.04 2751.93 L 2583.36 2756.37 L 2582.32 2765.63 L 2581.63 2774.01 L 2581.25 2779.44 L 2580.79 2784.86 L 2580.17 2793.24 L 2579.76 2802.55 L 2579.75 2807.05 L 2579.93 2810.74 L 2580.40 2814.02 L 2581.04 2815.78 L 2582.32 2817.15 L 2585.03 2819.06 L 2588.25 2820.89 L 2592.26 2822.92 L 2600.75 2826.76 L 2608.50 2830.00 L 2613.54 2832.05 L 2618.56 2834.16 L 2626.34 2837.34 L 2635.06 2840.61 L 2639.34 2842.01 L 2642.91 2842.98 L 2646.18 2843.55 L 2648.05 2843.48 L 2649.79 2842.65 L 2652.54 2840.57 L 2655.37 2837.97 L 2658.63 2834.65 L 2656.15 2825.46 L 2653.26 2816.45 L 2649.97 2807.60 L 2646.28 2798.90 L 2642.20 2790.37 L 2637.74 2782.06 L 2632.91 2773.95 L 2627.69 2766.04 L 2622.13 2758.38 L 2616.22 2750.98 L 2609.95 2743.82 L 2603.33 2736.90 L 2603.33 2736.90 Z M 2536.72 2999.71 L 2533.50 2999.75 L 2530.92 2999.93 L 2528.62 3000.31 L 2527.30 3000.81 L 2525.90 3002.06 L 2523.94 3004.74 L 2522.04 3007.91 L 2519.93 3011.88 L 2515.90 3020.28 L 2512.49 3027.97 L 2510.34 3032.96 L 2508.13 3037.93 L 2504.78 3045.64 L 2501.33 3054.30 L 2499.84 3058.54 L 2498.79 3062.09 L 2498.16 3065.34 L 2498.18 3067.22 L 2498.94 3068.94 L 2500.90 3071.65 L 2503.35 3074.45 L 2506.50 3077.71 L 2513.29 3084.17 L 2522.12 3081.36 L 2530.77 3078.19 L 2539.24 3074.67 L 2547.55 3070.79 L 2555.68 3066.55 L 2563.60 3061.98 L 2571.31 3057.08 L 2578.82 3051.84 L 2586.09 3046.28 L 2593.11 3040.42 L 2599.88 3034.25 L 2606.41 3027.76 L 2604.20 3019.28 L 2602.98 3015.31 L 2601.82 3012.12 L 2600.51 3009.38 L 2599.45 3007.99 L 2597.83 3007.04 L 2594.68 3006.00 L 2591.08 3005.18 L 2586.65 3004.39 L 2577.41 3003.16 L 2569.05 3002.30 L 2563.63 3001.79 L 2559.21 3001.32 L 2552.39 3000.64 L 2544.46 3000.02 L 2536.72 2999.71 L 2536.72 2999.71 Z"
            fill="#a5a3ff" fill-rule="nonzero" group-id="1" id="path23697" node-id="53" stroke="none"
            target-height="409.13892" target-width="410.90186" target-x="2247.7292" target-y="2675.028"></path>
    </g>
    <path
        d="M 2459.16 2554.66 L 2548.62 2553.80 L 2548.66 2591.23 C 2515.45 2592.27 2459.15 2608.82 2458.95 2607.79 C 2458.98 2590.29 2457.80 2577.66 2459.16 2554.66 L 2459.16 2554.66 Z"
        fill="#ffffff" fill-rule="nonzero" id="path915-42" node-id="54" stroke="none" target-height="55.023926"
        target-width="90.868164" target-x="2457.796" target-y="2553.798"></path>
    <path
        d="M 2299.14 2676.13 L 2558.13 2676.13 L 2548.67 2591.23 L 2517.82 2582.79 C 2496.82 2562.52 2458.38 2557.55 2432.15 2587.42 C 2432.15 2587.42 2384.14 2621.97 2360.71 2622.55 C 2313.26 2622.55 2295.53 2631.64 2299.14 2676.13 L 2299.14 2676.13 Z"
        fill="#3d3d3d" fill-rule="nonzero" id="path929-3" node-id="55" stroke="none" target-height="118.586914"
        target-width="262.60693" target-x="2295.527" target-y="2557.547"></path>
    <path
        d="M 3162.23 3008.07 L 3151.76 2941.82 L 3223.01 2941.82 L 3241.92 2941.82 L 3254.03 3035.18 L 3162.23 3008.07 Z"
        fill="#f6c6c0" fill-rule="nonzero" id="path924-6" node-id="56" stroke="none" target-height="93.36206"
        target-width="102.27002" target-x="3151.761" target-y="2941.816"></path>
    <path
        d="M 3246.01 2971.21 L 3156.56 2972.32 L 3162.23 3008.08 C 3162.23 3008.08 3253.58 3002.12 3253.79 3001.09 C 3253.99 3000.06 3246.01 2971.21 3246.01 2971.21 L 3246.01 2971.21 Z"
        fill="#ffffff" fill-rule="nonzero" id="path926-8" node-id="57" stroke="none" target-height="36.86499"
        target-width="97.43408" target-x="3156.557" target-y="2971.211"></path>
    <path
        d="M 3313.99 3092.98 L 3158.51 3092.98 L 3162.23 3008.08 L 3193.07 2999.64 C 3214.07 2979.36 3246.01 2971.21 3263.63 3001.07 C 3286.47 3060.22 3317.68 3035.70 3313.99 3092.98 L 3313.99 3092.98 Z"
        fill="#3d3d3d" fill-rule="nonzero" id="path928-9" node-id="58" stroke="none" target-height="121.76807"
        target-width="159.17212" target-x="3158.513" target-y="2971.211"></path>
    <path
        d="M 3062.46 1692.03 C 3065.47 1689.69 3067.67 1688.71 3067.67 1688.71 L 3097.47 1683.81 C 3109.26 1684.59 3144.82 1724.67 3152.70 1743.15 C 3174.31 1793.42 3127.23 1837.32 3069.93 1850.02 C 3018.25 1853.21 2990.41 1844.30 2983.46 1802.49 C 2980.19 1764.32 3020.76 1702.62 3062.46 1692.03 L 3062.46 1692.03 Z"
        fill="#f6cdc1" fill-rule="nonzero" id="path30993" node-id="59" stroke="none" target-height="169.39697"
        target-width="194.1211" target-x="2980.189" target-y="1683.813"></path>
    <path d="M 2544.21 1736.71 L 2599.48 1804.03 L 2668.26 1702.02 L 2621.49 1638.05 L 2544.21 1736.71 Z" fill="#ffffff"
        fill-rule="nonzero" id="path31019" node-id="60" stroke="none" target-height="165.97998" target-width="124.05591"
        target-x="2544.207" target-y="1638.045"></path>
    <path
        d="M 2663.36 1692.03 C 2660.35 1689.69 2658.15 1688.71 2658.15 1688.71 L 2628.35 1683.81 C 2616.56 1684.59 2581.01 1724.67 2573.11 1743.15 C 2551.51 1793.42 2598.59 1837.32 2655.89 1850.02 C 2707.58 1853.21 2735.41 1844.30 2742.36 1802.49 C 2745.63 1764.32 2705.06 1702.62 2663.36 1692.03 Z"
        fill="#f6cdc1" fill-rule="nonzero" id="path31023" node-id="61" stroke="none" target-height="169.39697"
        target-width="194.1211" target-x="2551.511" target-y="1683.813"></path>
    <path
        d="M 1831.62 3008.07 L 1823.48 2941.82 L 1902.87 2941.82 L 1921.78 2941.82 L 1923.42 3035.18 L 1831.62 3008.07 Z"
        fill="#f6c6c0" fill-rule="nonzero" id="path35634-0" node-id="62" stroke="none" target-height="93.36206"
        target-width="99.94397" target-x="1823.478" target-y="2941.816"></path>
    <path
        d="M 1906.72 1807.04 L 1926.11 2709.26 L 1921.78 2941.82 L 1823.48 2941.82 L 1799.06 2709.26 L 1742.17 2167.40 L 1608.32 2709.26 L 1550.87 2941.82 L 1460.71 2941.82 L 1486.30 2709.26 L 1494.74 2118.41 C 1458.06 2025.51 1433.04 1869.56 1567.93 1833.41 L 1906.72 1807.04 Z"
        fill="#6584f7" fill-rule="nonzero" id="path35658-8-24" node-id="63" stroke="none" target-height="1134.7799"
        target-width="493.0691" target-x="1433.038" target-y="1807.037"></path>
    <path d="M 1799.06 2709.26 L 1926.11 2709.26 L 1921.78 2941.82 L 1823.48 2941.82 L 1799.06 2709.26 Z" fill="#3362c4"
        fill-rule="nonzero" id="path35660-9" node-id="64" stroke="none" target-height="232.55786"
        target-width="127.04297" target-x="1799.063" target-y="2709.259"></path>
    <path d="M 1486.30 2709.26 L 1608.32 2709.26 L 1550.87 2941.82 L 1460.71 2941.82 L 1486.30 2709.26 Z" fill="#3362c4"
        fill-rule="nonzero" id="path35662-5" node-id="65" stroke="none" target-height="232.55786"
        target-width="147.60706" target-x="1460.714" target-y="2709.259"></path>
    <path d="M 1742.18 2167.40 L 1765.32 2079.41 L 1802.39 2079.41 L 1766.78 2403.89 L 1742.18 2167.40 Z" fill="#3362c4"
        fill-rule="nonzero" id="path35664-0" node-id="66" stroke="none" target-height="324.4812" target-width="60.21692"
        target-x="1742.176" target-y="2079.411"></path>
    <path
        d="M 2023.08 1425.54 C 2027.13 1437.26 2025.35 1413.43 2028.79 1427.01 C 2032.60 1442.09 2050.81 1490.14 2046.87 1503.52 C 2001.93 1655.93 1968.71 1802.35 1924.53 1847.91 L 1887.77 1807.51 C 1927.27 1685.41 1934.21 1617.92 1945.63 1512.18 C 1942.46 1499.26 1931.59 1466.74 1928.06 1457.22 C 1967.57 1449.14 1990.19 1432.75 2023.08 1425.54 L 2023.08 1425.54 Z"
        fill="#f6cdc1" fill-rule="nonzero" id="path4422" node-id="67" stroke="none" target-height="434.48096"
        target-width="163.04504" target-x="1887.766" target-y="1413.427"></path>
    <path
        d="M 1913.96 1719.72 C 1933.19 1720.53 1971.12 1738.61 1973.31 1755.04 C 1960.87 1787.53 1955.52 1822.52 1946.12 1829.48 L 1928.48 1831.64 C 1928.48 1831.64 1898.40 1805.40 1897.23 1797.11 C 1896.31 1790.55 1881.62 1814.92 1897.23 1797.11 C 1907.74 1790.42 1900.85 1753.85 1913.96 1719.72 Z"
        fill="#f69cb3" fill-rule="nonzero" id="path4424" node-id="68" stroke="none" target-height="111.926025"
        target-width="91.69592" target-x="1881.618" target-y="1719.716"></path>
    <path
        d="M 1914.55 1734.18 C 1909.76 1735.33 1903.92 1738.76 1896.93 1745.29 C 1889.07 1751.35 1882.11 1756.59 1876.12 1761.35 L 1907.70 1899.86 C 1928.52 1898.36 1921.97 1896.59 1928.21 1893.88 C 1933.98 1890.90 1939.31 1886.81 1944.12 1881.90 C 1931.34 1855.18 1925.45 1779.89 1925.45 1779.89 C 1936.24 1766.96 1935.29 1729.19 1914.55 1734.18 L 1914.55 1734.18 Z"
        fill="#f6cdc1" fill-rule="nonzero" id="path4426-60" node-id="69" stroke="none" target-height="170.67004"
        target-width="68.00098" target-x="1876.115" target-y="1729.193"></path>
    <path d="M 1906.75 1779.73 L 1906.72 1807.04 L 1567.93 1833.41 L 1574.29 1779.73 L 1906.75 1779.73 Z" fill="#ffffff"
        fill-rule="nonzero" id="path35666-2" node-id="70" stroke="none" target-height="53.68396"
        target-width="338.82495" target-x="1567.927" target-y="1779.728"></path>
    <path
        d="M 1921.78 2971.21 L 1826.64 2972.32 L 1831.62 3008.08 C 1831.62 3008.08 1922.97 3002.12 1923.18 3001.09 C 1923.38 3000.06 1921.78 2971.21 1921.78 2971.21 Z"
        fill="#ffffff" fill-rule="nonzero" id="path35668-3" node-id="71" stroke="none" target-height="36.86499"
        target-width="96.74097" target-x="1826.641" target-y="2971.211"></path>
    <path
        d="M 2081.15 3092.98 L 1822.15 3092.98 L 1831.62 3008.08 L 1862.47 2999.64 C 1883.47 2979.36 1921.90 2974.39 1948.14 3004.27 C 1948.14 3004.27 1996.15 3038.82 2019.57 3039.40 C 2067.02 3039.40 2084.76 3048.48 2081.15 3092.98 L 2081.15 3092.98 Z"
        fill="#3d3d3d" fill-rule="nonzero" id="path35670-0" node-id="72" stroke="none" target-height="118.58594"
        target-width="262.60608" target-x="1822.15" target-y="2974.393"></path>
    <path
        d="M 1540.41 3008.07 L 1550.87 2941.82 L 1479.62 2941.82 L 1460.71 2941.82 L 1448.60 3035.18 L 1540.41 3008.07 Z"
        fill="#f6c6c0" fill-rule="nonzero" id="path35672-3" node-id="73" stroke="none" target-height="93.36206"
        target-width="102.27002" target-x="1448.603" target-y="2941.816"></path>
    <path
        d="M 1456.62 2971.21 L 1546.08 2972.32 L 1540.41 3008.08 C 1540.41 3008.08 1449.06 3002.12 1448.85 3001.09 C 1448.64 3000.06 1456.62 2971.21 1456.62 2971.21 Z"
        fill="#ffffff" fill-rule="nonzero" id="path35674-6" node-id="74" stroke="none" target-height="36.86499"
        target-width="97.43408" target-x="1448.643" target-y="2971.211"></path>
    <path
        d="M 1388.64 3092.98 L 1544.12 3092.98 L 1540.41 3008.08 L 1509.56 2999.64 C 1488.56 2979.36 1456.62 2971.21 1439.01 3001.07 C 1416.16 3060.22 1384.95 3035.70 1388.64 3092.98 Z"
        fill="#3d3d3d" fill-rule="nonzero" id="path35676-3-5" node-id="75" stroke="none" target-height="121.76807"
        target-width="159.17102" target-x="1384.949" target-y="2971.211"></path>
    <path
        d="M 1460.54 647.49 C 1460.54 647.49 1381.27 903.87 1284.29 1031.48 C 1187.30 1159.09 1244.53 1263.09 1366.89 1263.00 C 1489.26 1262.92 1737.82 1204.75 1737.82 1204.75 L 1836.26 1178.62 C 1836.26 1178.62 1905.81 1078.33 1846.19 992.82 C 1786.58 907.32 1796.38 758.80 1796.38 758.80 C 1796.38 758.80 1536.22 586.64 1460.54 647.49 L 1460.54 647.49 Z"
        fill="#3d3d3d" fill-rule="nonzero" id="path4297-4-8-8-7-6" node-id="76" stroke="none" target-height="676.44293"
        target-width="718.50696" target-x="1187.301" target-y="586.642"></path>
    <path
        d="M 1657.28 1021.20 C 1622.82 1019.04 1631.15 999.28 1631.15 999.28 C 1570.50 1025.85 1473.32 1061.16 1410.45 1119.26 C 1364.70 1163.21 1258.93 1409.42 1229.65 1453.63 C 1227.94 1456.20 1231.03 1451.01 1229.65 1453.63 L 1369.66 1485.80 L 1439.94 1394.12 L 1531.65 1561.16 L 1574.29 1779.73 L 1906.75 1779.73 L 1828.60 1458.75 C 1852.02 1447.76 1874.84 1412.27 1865.34 1369.83 C 1881.18 1407.68 1904.99 1451.73 1923.64 1490.09 L 2038.92 1403.41 C 1999.33 1328.36 1942.77 1220.20 1916.88 1165.85 C 1868.94 1076.51 1800.15 1060.62 1773.69 1050.62 C 1676.94 1010.02 1698.88 1023.81 1657.28 1021.20 L 1657.28 1021.20 Z"
        fill="#ff6853" fill-rule="nonzero" id="path4262-7-9-5-0" node-id="77" stroke="none" target-height="780.45105"
        target-width="810.9829" target-x="1227.941" target-y="999.276"></path>
    <path d="M 1778.71 786.45 L 1798.72 848.77 C 1883.81 845.19 1857.60 650.97 1778.71 786.45 Z" fill="#f69cb3"
        fill-rule="nonzero" id="path4242-0-8-5-7" node-id="78" stroke="none" target-height="197.80096"
        target-width="105.099976" target-x="1778.713" target-y="650.973"></path>
    <path
        d="M 1581.08 834.41 C 1581.08 834.41 1581.63 917.38 1577.75 953.32 C 1573.87 989.25 1573.34 1008.82 1573.34 1008.82 L 1656.10 1094.68 L 1704.88 1054.83 L 1686.16 960.45 L 1581.08 834.41 Z"
        fill="#f6c6c0" fill-rule="nonzero" id="path4248-1-7-73-0" node-id="79" stroke="none" target-height="260.26703"
        target-width="131.54895" target-x="1573.336" target-y="834.409"></path>
    <path
        d="M 1581.08 834.41 L 1686.16 960.45 L 1700.32 1031.83 C 1681.77 1034.45 1661.80 1032.41 1648.16 1017.53 C 1615.81 982.22 1610.85 897.45 1610.85 897.45 L 1581.08 834.41 Z"
        fill="#f69cb3" fill-rule="nonzero" id="path4250-1-3-9-3" node-id="80" stroke="none" target-height="200.04596"
        target-width="119.24597" target-x="1581.077" target-y="834.409"></path>
    <path
        d="M 1581.08 834.41 C 1497.20 819.67 1548.71 630.59 1609.11 775.25 C 1629.88 745.21 1672.07 701.96 1654.81 640.18 C 1716.37 664.83 1767.52 684.15 1836.22 670.28 C 1843.70 966.03 1684.38 1135.02 1581.08 834.41 Z"
        fill="#f6c6c0" fill-rule="nonzero" id="path4252-8-9-7-4" node-id="81" stroke="none" target-height="504.43195"
        target-width="346.50598" target-x="1497.196" target-y="630.585"></path>
    <path
        d="M 1587.46 794.87 C 1587.93 793.39 1584.86 771.33 1573.47 755.49 C 1562.07 739.66 1550.37 756.99 1550.37 756.99 C 1550.37 756.99 1561.86 754.35 1567.55 765.28 C 1573.23 776.21 1550.97 787.94 1570.02 802.01 C 1589.07 816.09 1587.46 794.87 1587.46 794.87 L 1587.46 794.87 Z"
        fill="#f69cb3" fill-rule="nonzero" id="path4254-5-5-9-1" node-id="82" stroke="none" target-height="76.425964"
        target-width="38.698975" target-x="1550.374" target-y="739.661"></path>
    <path
        d="M 1656.10 1094.68 L 1573.91 1000.88 L 1576.26 970.78 C 1544.05 990.42 1537.91 1024.26 1541.54 1042.73 L 1589.66 1161.78 L 1656.10 1094.68 Z"
        fill="#ffffff" fill-rule="nonzero" id="path4256-48-3-74-6" node-id="83" stroke="none" target-height="190.992"
        target-width="118.18701" target-x="1537.908" target-y="970.783"></path>
    <path
        d="M 1704.88 1054.83 L 1693.46 997.35 C 1725.09 1007.14 1751.67 1054.11 1742.32 1083.36 C 1739.36 1091.99 1712.90 1167.06 1712.90 1167.06 L 1656.09 1094.68 L 1704.88 1054.83 Z"
        fill="#ffffff" fill-rule="nonzero" id="path4258-6-9-5-6-41" node-id="84" stroke="none" target-height="169.71094"
        target-width="95.57202" target-x="1656.094" target-y="997.353"></path>
    <path
        d="M 1835.27 684.79 C 1811.37 755.07 1682.46 842.05 1614.92 806.84 L 1609.11 775.25 C 1609.11 775.25 1591.88 729.22 1567.46 721.42 C 1543.05 713.63 1460.54 647.49 1460.54 647.49 C 1460.54 647.49 1498.92 529.58 1578.98 481.84 C 1659.05 434.10 1774.79 496.81 1841.61 543.76 C 1880.04 570.75 1866.68 620.69 1866.68 620.69 C 1882.06 661.33 1909.50 695.77 1882.07 740.57 C 1854.64 785.37 1829.40 791.65 1829.40 791.65 C 1829.40 791.65 1837.52 732.66 1835.27 684.79 L 1835.27 684.79 Z"
        fill="#3d3d3d" fill-rule="nonzero" id="path4260-9-9-5-2" node-id="85" stroke="none" target-height="407.95502"
        target-width="448.95898" target-x="1460.54" target-y="434.099"></path>
    <path d="M 1823.48 2941.82 L 1826.64 2972.31 L 1921.78 2971.21 L 1921.78 2941.82 L 1823.48 2941.82 Z" fill="#f6cdc1"
        fill-rule="nonzero" id="path36129-6" node-id="86" stroke="none" target-height="30.499023"
        target-width="98.29895" target-x="1823.479" target-y="2941.815"></path>
    <path d="M 1439.93 1394.12 L 1444.59 1271.93 L 1369.66 1485.80 L 1439.93 1394.12 Z" fill="#e0523c"
        fill-rule="nonzero" id="path4413" node-id="87" stroke="none" target-height="213.87402" target-width="74.92407"
        target-x="1369.662" target-y="1271.929"></path>
    <path d="M 1865.34 1369.83 L 1848.12 1291.82 L 1965.57 1456.93 L 1923.63 1490.09 L 1865.34 1369.83 Z" fill="#e0523c"
        fill-rule="nonzero" id="path4470" node-id="88" stroke="none" target-height="198.27295" target-width="117.44202"
        target-x="1848.125" target-y="1291.816"></path>
    <path d="M 1923.63 1490.09 L 1891.91 1466.37 L 2039.35 1354.10 L 2057.68 1430.61 L 1923.63 1490.09 Z" fill="#ffffff"
        fill-rule="nonzero" id="path4407" node-id="89" stroke="none" target-height="135.98596" target-width="165.776"
        target-x="1891.909" target-y="1354.102"></path>
    <path
        d="M 1681.68 1685.44 C 1681.68 1800.85 1586.81 1894.41 1469.78 1894.41 C 1352.74 1894.41 1257.87 1800.85 1257.87 1685.44 C 1257.87 1570.03 1352.74 1476.46 1469.78 1476.46 C 1586.81 1476.46 1681.68 1570.02 1681.68 1685.44 L 1681.68 1685.44 Z"
        fill="#cecfff" fill-rule="nonzero" id="path24123" node-id="90" stroke="none" target-height="417.94995"
        target-width="423.81494" target-x="1257.868" target-y="1476.463"></path>
    <path
        d="M 1469.78 1476.46 C 1463.04 1476.57 1457.66 1482.10 1457.75 1488.84 L 1457.75 1687.24 C 1457.66 1693.98 1463.05 1699.53 1469.79 1699.62 C 1476.53 1699.72 1482.08 1694.33 1482.17 1687.59 C 1482.17 1687.47 1482.17 1687.36 1482.17 1687.24 L 1482.17 1488.84 C 1482.26 1482.10 1476.87 1476.56 1470.13 1476.46 C 1470.01 1476.46 1469.89 1476.46 1469.78 1476.46 Z"
        fill="#b7bbff" fill-rule="nonzero" id="path24125" node-id="91" stroke="none" target-height="223.25696"
        target-width="24.607056" target-x="1457.657" target-y="1476.461"></path>
    <path
        d="M 1310.74 1601.26 C 1306.88 1606.78 1308.21 1614.38 1313.73 1618.25 L 1398.24 1679.35 C 1411.49 1689.21 1426.07 1669.05 1412.55 1659.56 L 1328.04 1598.46 C 1322.51 1594.35 1314.69 1595.62 1310.74 1601.26 Z"
        fill="#f2f4ff" fill-rule="nonzero" id="path24127" node-id="92" stroke="none" target-height="94.859985"
        target-width="119.18799" target-x="1306.879" target-y="1594.353"></path>
    <path
        d="M 1630.03 1603.16 C 1633.90 1608.68 1632.56 1616.29 1627.05 1620.16 L 1542.53 1681.26 C 1529.29 1691.12 1514.71 1670.95 1528.22 1661.47 L 1612.74 1600.37 C 1618.26 1596.26 1626.09 1597.52 1630.03 1603.16 Z"
        fill="#b7bbff" fill-rule="nonzero" id="path24129" node-id="93" stroke="none" target-height="94.86194"
        target-width="119.188965" target-x="1514.707" target-y="1596.26"></path>
    <path
        d="M 1446.15 1728.33 C 1440.63 1724.47 1433.03 1725.81 1429.16 1731.32 L 1368.06 1815.83 C 1358.20 1829.08 1378.36 1843.66 1387.85 1830.14 L 1448.95 1745.63 C 1453.06 1740.10 1451.79 1732.28 1446.15 1728.33 Z"
        fill="#b7bbff" fill-rule="nonzero" id="path24131" node-id="94" stroke="none" target-height="119.18701"
        target-width="94.86096" target-x="1358.196" target-y="1724.47"></path>
    <path
        d="M 1485.72 1728.33 C 1491.24 1724.47 1498.84 1725.81 1502.71 1731.32 L 1563.81 1815.83 C 1573.68 1829.08 1553.51 1843.66 1544.03 1830.14 L 1482.92 1745.63 C 1478.82 1740.10 1480.08 1732.28 1485.72 1728.33 Z"
        fill="#b7bbff" fill-rule="nonzero" id="path24133" node-id="95" stroke="none" target-height="119.18701"
        target-width="94.861084" target-x="1478.815" target-y="1724.47"></path>
    <path
        d="M 1518.40 1759.49 C 1512.40 1763.80 1476.63 1762.80 1469.24 1762.76 C 1461.85 1762.72 1426.08 1763.31 1420.12 1758.94 C 1414.17 1754.56 1404.07 1720.24 1401.82 1713.20 C 1399.58 1706.15 1387.96 1672.32 1390.28 1665.30 C 1392.61 1658.29 1422.13 1638.07 1428.13 1633.76 C 1434.13 1629.45 1462.73 1607.94 1470.12 1607.99 C 1477.51 1608.03 1505.85 1629.86 1511.81 1634.23 C 1517.76 1638.61 1547.05 1659.16 1549.30 1666.20 C 1551.54 1673.24 1539.54 1706.95 1537.21 1713.96 C 1534.89 1720.98 1524.40 1755.18 1518.40 1759.49 L 1518.40 1759.49 Z"
        fill="#a5a3ff" fill-rule="nonzero" id="path24135" node-id="96" stroke="none" target-height="155.85706"
        target-width="163.57898" target-x="1387.96" target-y="1607.944"></path>
    <path
        d="M 1383.74 1801.15 C 1374.11 1801.23 1360.56 1802.86 1356.83 1803.23 C 1351.40 1803.77 1325.08 1805.79 1321.01 1809.42 C 1318.87 1811.32 1316.47 1819.37 1314.49 1827.36 C 1339.83 1854.39 1371.94 1874.34 1407.60 1885.19 C 1414.30 1879.03 1421.59 1871.80 1422.28 1868.65 C 1423.44 1863.32 1412.31 1839.39 1410.12 1834.40 C 1407.93 1829.40 1397.87 1805.00 1393.16 1802.25 C 1391.69 1801.39 1388.12 1801.11 1383.74 1801.15 Z"
        fill="#a5a3ff" fill-rule="nonzero" id="path24137" node-id="97" stroke="none" target-height="84.08801"
        target-width="108.94702" target-x="1314.494" target-y="1801.106"></path>
    <path
        d="M 1469.78 1476.46 C 1451.48 1476.50 1433.27 1478.87 1415.60 1483.52 C 1413.90 1489.34 1412.76 1494.55 1413.37 1496.64 C 1414.91 1501.87 1436.18 1517.50 1440.50 1520.83 C 1444.82 1524.16 1465.37 1540.72 1470.82 1540.87 C 1476.27 1541.02 1497.72 1525.62 1502.21 1522.54 C 1506.71 1519.46 1528.81 1505.03 1530.64 1499.90 C 1531.45 1497.63 1530.34 1491.49 1528.72 1484.87 C 1509.57 1479.35 1489.73 1476.51 1469.78 1476.46 L 1469.78 1476.46 Z M 1319.87 1537.93 C 1292.96 1564.60 1273.85 1597.94 1264.55 1634.43 C 1269.42 1639.67 1274.26 1644.32 1276.69 1644.91 C 1281.99 1646.19 1306.16 1635.57 1311.20 1633.48 C 1316.24 1631.40 1340.85 1621.86 1343.70 1617.22 C 1346.55 1612.57 1343.92 1586.31 1343.49 1580.87 C 1343.07 1575.43 1341.61 1549.08 1338.07 1544.93 C 1336.18 1542.71 1327.95 1540.10 1319.87 1537.93 L 1319.87 1537.93 Z M 1620.15 1538.34 C 1612.60 1540.42 1605.26 1542.86 1603.49 1544.93 C 1599.96 1549.08 1598.49 1575.44 1598.07 1580.87 C 1597.64 1586.31 1595.01 1612.57 1597.86 1617.22 C 1600.71 1621.86 1625.33 1631.40 1630.37 1633.48 C 1635.40 1635.57 1659.57 1646.19 1664.87 1644.91 C 1667.05 1644.39 1671.14 1640.62 1675.45 1636.09 C 1666.37 1599.15 1647.25 1565.35 1620.15 1538.34 Z M 1553.54 1801.15 C 1549.16 1801.11 1545.59 1801.39 1544.12 1802.25 C 1539.42 1805.00 1529.36 1829.40 1527.17 1834.40 C 1524.98 1839.39 1513.84 1863.32 1515.01 1868.65 C 1515.71 1871.87 1523.30 1879.36 1530.12 1885.60 C 1565.62 1875.15 1597.72 1855.70 1623.23 1829.19 C 1621.18 1820.64 1618.58 1811.47 1616.27 1809.42 C 1612.20 1805.79 1585.88 1803.77 1580.46 1803.23 C 1576.73 1802.86 1563.17 1801.23 1553.54 1801.15 Z"
        fill="#a5a3ff" fill-rule="nonzero" id="path24139" node-id="98" stroke="none" target-height="409.13904"
        target-width="410.901" target-x="1264.551" target-y="1476.463"></path>
    <path
        d="M 1828.60 1458.75 C 1828.60 1458.75 1779.99 1474.03 1737.23 1451.83 C 1694.48 1429.63 1689.55 1427.16 1689.55 1427.16 C 1689.55 1427.16 1645.97 1458.41 1619.66 1461.69 C 1593.35 1464.98 1570.32 1454.30 1570.32 1454.30 C 1570.32 1454.30 1614.72 1577.63 1727.37 1619.56 C 1840.01 1661.49 1874.01 1646.16 1874.01 1646.16 L 1828.60 1458.75 Z"
        fill="#e0523c" fill-rule="nonzero" id="path4415" node-id="99" stroke="none" target-height="234.33203"
        target-width="303.68506" target-x="1570.324" target-y="1427.163"></path>
    <path
        d="M 1925.45 1779.89 C 1953.20 1762.79 1980.24 1793.07 1991.42 1817.26 C 2007.21 1854.02 1972.80 1886.10 1930.92 1895.39 C 1893.13 1897.72 1872.79 1891.20 1867.70 1860.64 C 1865.31 1832.74 1894.97 1787.64 1925.45 1779.89 L 1925.45 1779.89 Z"
        fill="#f6cdc1" fill-rule="nonzero" id="path4428-7" node-id="100" stroke="none" target-height="134.932"
        target-width="141.89905" target-x="1865.313" target-y="1762.785"></path>
    <path d="M 3162.29 1283.05 L 3200.47 1210.42 L 3252.46 1410.51 L 3162.29 1283.05 Z" fill="#3362c4"
        fill-rule="nonzero" id="path4472" node-id="101" stroke="none" target-height="200.08398" target-width="90.174805"
        target-x="3162.288" target-y="1210.421"></path>
    <path d="M 2684.80 1299.59 L 2684.80 1161.59 L 2627.82 1388.82 L 2684.80 1299.59 Z" fill="#3362c4"
        fill-rule="nonzero" id="path4474" node-id="102" stroke="none" target-height="227.23096" target-width="56.979004"
        target-x="2627.824" target-y="1161.587"></path>
    <path
        d="M 579.61 2864.46 L 608.44 3039.59 L 609.40 3045.09 L 610.69 3050.37 L 612.33 3055.43 L 614.32 3060.30 L 616.67 3065.02 L 619.33 3069.41 L 622.29 3073.49 L 625.55 3077.27 L 629.14 3080.75 L 633.00 3083.82 L 637.14 3086.48 L 641.58 3088.76 L 646.19 3090.55 L 651.08 3091.86 L 656.28 3092.68 L 661.83 3092.98 L 899.04 3092.98 L 904.59 3092.67 L 909.78 3091.86 L 914.64 3090.54 L 919.23 3088.75 L 923.63 3086.47 L 927.73 3083.80 L 931.56 3080.73 L 935.13 3077.25 L 938.36 3073.46 L 941.31 3069.38 L 943.97 3064.99 L 946.34 3060.26 L 948.34 3055.40 L 950.03 3050.34 L 951.39 3045.08 L 952.43 3039.59 L 979.61 2864.46 L 579.61 2864.46 Z"
        fill="#cecfff" fill-rule="nonzero" group-id="2" id="path36271-3-3" node-id="104" stroke="none"
        target-height="228.52002" target-width="400.00104" target-x="579.6112" target-y="2864.459"></path>
    <path d="M 579.61 2864.46 L 586.20 2904.47 L 973.40 2904.47 L 979.61 2864.46 L 579.61 2864.46 Z" fill="#b7bbff"
        fill-rule="nonzero" group-id="2" id="path36273-9-4" node-id="105" stroke="none" target-height="40.006104"
        target-width="400.00104" target-x="579.6112" target-y="2864.459"></path>
    <path
        d="M 993.74 2492.25 L 987.79 2492.63 L 980.06 2493.77 L 971.93 2495.49 L 962.62 2497.95 L 953.13 2500.91 L 943.09 2504.51 L 933.08 2508.59 L 923.13 2513.18 L 916.62 2516.53 L 910.39 2520.04 L 904.43 2523.72 L 898.65 2527.66 L 893.41 2531.70 L 888.65 2535.83 L 884.22 2540.29 L 880.52 2544.77 L 877.48 2549.28 L 874.13 2555.45 L 871.41 2561.47 L 869.28 2567.34 L 867.71 2573.08 L 866.58 2579.02 L 865.95 2584.80 L 865.78 2590.43 L 866.08 2595.94 L 866.81 2601.45 L 867.94 2606.80 L 869.45 2611.99 L 871.35 2617.05 L 873.62 2621.97 L 876.19 2626.70 L 879.08 2631.24 L 882.30 2635.60 L 880.17 2642.19 L 878.04 2649.28 L 875.05 2660.26 L 872.19 2672.43 L 869.46 2685.89 L 867.20 2699.39 L 865.28 2714.08 L 863.72 2730.04 L 862.93 2741.90 L 862.45 2754.41 L 862.29 2767.61 L 862.48 2781.54 L 863.03 2795.18 L 864.02 2809.49 L 865.47 2824.48 L 867.39 2840.21 L 868.09 2843.28 L 869.24 2846.03 L 870.84 2848.51 L 872.85 2850.69 L 875.14 2852.45 L 877.76 2853.84 L 880.56 2854.75 L 883.52 2855.16 L 886.67 2855.05 L 889.75 2854.35 L 892.50 2853.20 L 894.98 2851.60 L 897.15 2849.59 L 898.92 2847.30 L 900.30 2844.68 L 901.22 2841.87 L 901.62 2838.92 L 901.51 2835.77 L 901.47 2835.52 L 899.91 2823.04 L 898.68 2811.08 L 897.78 2799.61 L 902.25 2801.57 L 906.89 2802.98 L 911.73 2803.87 L 915.40 2804.14 L 919.13 2804.05 L 922.93 2803.58 L 926.83 2802.72 L 930.57 2801.51 L 934.36 2799.85 L 938.22 2797.70 L 942.15 2795.03 L 945.19 2792.37 L 948.12 2789.09 L 950.94 2785.12 L 953.43 2780.92 L 955.76 2776.35 L 957.91 2771.39 L 960.68 2763.78 L 962.95 2756.07 L 964.74 2748.37 L 965.95 2741.39 L 966.67 2734.71 L 966.81 2729.57 L 966.54 2726.28 L 966.04 2724.16 L 965.41 2722.87 L 964.13 2721.66 L 961.99 2720.39 L 958.69 2719.09 L 953.35 2717.66 L 946.39 2716.47 L 939.01 2715.75 L 930.83 2715.47 L 922.55 2715.71 L 914.33 2716.53 L 908.90 2717.44 L 903.87 2718.63 L 899.20 2720.10 L 900.69 2708.23 L 902.38 2697.24 L 904.26 2687.08 L 906.43 2676.95 L 908.67 2667.70 L 910.96 2659.28 L 917.71 2662.44 L 924.64 2664.99 L 931.77 2666.93 L 937.22 2667.96 L 942.68 2668.59 L 948.17 2668.82 L 953.70 2668.66 L 959.19 2668.07 L 964.62 2667.04 L 970.03 2665.55 L 975.41 2663.59 L 980.57 2661.21 L 985.64 2658.32 L 990.64 2654.88 L 995.56 2650.86 L 1000.07 2646.52 L 1004.45 2641.56 L 1008.69 2635.93 L 1012.81 2629.56 L 1014.97 2625.47 L 1016.90 2621.00 L 1018.58 2616.10 L 1020.01 2610.76 L 1021.44 2603.59 L 1022.48 2595.98 L 1023.11 2587.91 L 1023.34 2579.81 L 1023.25 2571.62 L 1022.81 2563.32 L 1022.06 2555.04 L 1021.07 2547.03 L 1019.82 2539.29 L 1018.31 2531.58 L 1016.66 2524.55 L 1014.88 2518.14 L 1012.80 2511.78 L 1010.73 2506.49 L 1008.69 2502.15 L 1006.82 2498.89 L 1005.08 2496.49 L 1003.47 2494.78 L 1001.97 2493.64 L 1000.19 2492.91 L 997.54 2492.41 L 993.74 2492.25 L 993.74 2492.25 Z"
        fill="#cecfff" fill-rule="nonzero" group-id="2" id="path36277-4-09" node-id="106" stroke="none"
        target-height="362.91113" target-width="161.0534" target-x="862.2908" target-y="2492.249"></path>
    <path
        d="M 533.57 2540.68 L 526.18 2540.94 L 519.82 2541.51 L 513.87 2542.46 L 509.26 2543.65 L 506.40 2544.74 L 504.30 2545.88 L 502.82 2547.05 L 501.66 2548.58 L 500.51 2551.02 L 499.39 2554.66 L 498.25 2560.51 L 497.40 2568.27 L 497.00 2576.58 L 497.02 2586.20 L 497.47 2596.13 L 498.41 2606.76 L 499.82 2617.48 L 501.75 2628.27 L 503.34 2635.42 L 505.15 2642.34 L 507.20 2649.03 L 509.56 2655.62 L 512.13 2661.72 L 514.93 2667.36 L 518.12 2672.77 L 521.51 2677.49 L 525.10 2681.57 L 530.29 2686.44 L 535.49 2690.63 L 540.69 2694.20 L 545.92 2697.20 L 551.45 2699.79 L 556.94 2701.87 L 562.42 2703.44 L 567.90 2704.52 L 573.48 2705.17 L 579.00 2705.39 L 584.47 2705.19 L 589.91 2704.56 L 595.29 2703.55 L 600.57 2702.18 L 605.74 2700.45 L 610.81 2698.36 L 615.87 2704.42 L 621.10 2711.15 L 626.54 2718.60 L 619.90 2719.51 L 613.24 2720.83 L 606.69 2722.51 L 600.53 2724.42 L 594.63 2726.59 L 589.55 2728.80 L 584.90 2731.22 L 581.47 2733.43 L 579.44 2735.09 L 578.15 2736.51 L 577.43 2737.74 L 577.14 2739.15 L 577.19 2741.33 L 577.77 2744.58 L 579.19 2749.52 L 581.57 2755.80 L 584.50 2762.25 L 588.17 2769.25 L 592.31 2776.14 L 596.91 2782.81 L 600.24 2787.07 L 603.64 2790.90 L 607.11 2794.34 L 610.84 2797.47 L 614.50 2799.90 L 618.11 2801.72 L 622.57 2803.30 L 626.82 2804.41 L 630.88 2805.07 L 634.79 2805.30 L 638.76 2805.16 L 642.55 2804.67 L 646.17 2803.84 L 649.64 2802.67 L 654.09 2800.62 L 658.21 2798.11 L 662.04 2795.12 L 663.70 2802.37 L 665.11 2809.85 L 666.28 2817.56 L 666.91 2820.65 L 668.00 2823.43 L 669.55 2825.94 L 671.50 2828.16 L 673.76 2829.98 L 676.34 2831.42 L 679.13 2832.40 L 682.07 2832.87 L 685.23 2832.82 L 688.32 2832.19 L 691.09 2831.10 L 693.61 2829.55 L 695.82 2827.60 L 697.64 2825.34 L 699.08 2822.76 L 700.06 2819.97 L 700.53 2817.03 L 700.48 2813.87 L 700.38 2813.10 L 698.64 2801.97 L 696.49 2791.30 L 693.95 2781.05 L 691.03 2771.22 L 687.67 2761.41 L 684.06 2752.06 L 680.22 2743.13 L 676.15 2734.63 L 670.23 2723.45 L 664.18 2713.10 L 658.02 2703.55 L 651.46 2694.22 L 645.10 2685.79 L 638.93 2678.21 L 642.69 2673.94 L 646.13 2669.49 L 649.26 2664.83 L 652.08 2659.96 L 654.57 2654.91 L 656.67 2649.75 L 658.38 2644.45 L 659.71 2639.00 L 660.62 2633.48 L 661.07 2627.89 L 661.06 2622.22 L 660.58 2616.43 L 659.62 2610.76 L 658.13 2605.05 L 656.08 2599.26 L 653.44 2593.39 L 650.38 2587.86 L 646.66 2582.29 L 642.23 2576.68 L 637.05 2571.00 L 633.77 2567.99 L 630.10 2565.09 L 625.98 2562.31 L 621.40 2559.65 L 615.14 2556.53 L 608.38 2553.66 L 601.08 2551.04 L 593.66 2548.78 L 586.05 2546.79 L 578.23 2545.07 L 566.47 2543.04 L 555.02 2541.65 L 543.74 2540.86 L 533.57 2540.68 Z"
        fill="#a5a3ff" fill-rule="nonzero" group-id="2" id="path36281-2-68" node-id="107" stroke="none"
        target-height="292.18628" target-width="203.53085" target-x="496.99948" target-y="2540.68"></path>
    <path
        d="M 948.87 2278.67 L 940.65 2278.84 L 930.99 2279.65 L 921.03 2281.02 L 910.31 2283.02 L 899.53 2285.57 L 888.65 2288.71 L 881.48 2291.12 L 874.55 2293.76 L 867.85 2296.63 L 861.30 2299.80 L 855.27 2303.16 L 849.72 2306.68 L 844.45 2310.60 L 839.93 2314.64 L 836.09 2318.80 L 831.54 2324.80 L 827.70 2330.68 L 824.54 2336.45 L 822.01 2342.13 L 819.91 2348.10 L 818.36 2353.93 L 817.35 2359.65 L 816.86 2365.28 L 816.83 2370.98 L 817.24 2376.54 L 818.09 2381.98 L 819.37 2387.31 L 821.07 2392.55 L 823.11 2397.61 L 825.52 2402.52 L 828.30 2407.28 L 832.48 2413.31 L 837.17 2418.95 L 842.37 2424.23 L 840.33 2429.83 L 836.17 2442.33 L 831.94 2456.83 L 827.68 2473.52 L 823.97 2490.30 L 820.36 2509.44 L 816.88 2531.15 L 813.99 2552.92 L 811.37 2577.40 L 809.06 2604.82 L 807.35 2632.27 L 806.09 2662.78 L 805.33 2696.60 L 805.18 2730.42 L 805.65 2767.67 L 806.81 2808.58 L 807.17 2811.71 L 808.02 2814.57 L 809.36 2817.20 L 811.12 2819.58 L 813.21 2821.58 L 815.67 2823.23 L 818.36 2824.44 L 821.25 2825.16 L 824.40 2825.38 L 827.53 2825.02 L 830.39 2824.17 L 833.02 2822.84 L 835.40 2821.07 L 837.40 2818.98 L 839.05 2816.53 L 840.26 2813.83 L 840.98 2810.94 L 841.20 2807.79 L 841.19 2807.34 L 840.09 2769.13 L 839.61 2734.24 L 839.70 2702.48 L 840.32 2670.73 L 841.39 2642.00 L 842.85 2616.11 L 847.81 2618.47 L 852.95 2620.25 L 858.30 2621.46 L 862.39 2621.96 L 866.45 2622.08 L 870.51 2621.82 L 874.58 2621.17 L 878.54 2620.13 L 882.39 2618.64 L 886.15 2616.71 L 889.83 2614.30 L 893.18 2611.55 L 896.36 2608.28 L 899.38 2604.42 L 902.23 2599.93 L 903.93 2596.27 L 905.29 2592.09 L 906.28 2587.32 L 906.86 2582.47 L 907.14 2577.35 L 907.12 2571.94 L 906.58 2563.86 L 905.55 2555.89 L 904.08 2548.12 L 902.38 2541.25 L 900.35 2534.85 L 898.40 2530.09 L 896.83 2527.18 L 895.52 2525.44 L 894.41 2524.52 L 892.94 2523.97 L 890.80 2523.66 L 887.79 2523.69 L 883.13 2524.27 L 877.25 2525.56 L 871.16 2527.35 L 864.45 2529.75 L 857.76 2532.60 L 851.06 2535.91 L 854.30 2515.56 L 857.63 2497.77 L 861.01 2482.31 L 864.88 2466.94 L 868.65 2453.80 L 872.31 2442.66 L 877.63 2444.41 L 883.01 2445.78 L 888.47 2446.78 L 894.02 2447.40 L 899.59 2447.61 L 905.16 2447.39 L 910.74 2446.73 L 916.35 2445.63 L 921.82 2444.09 L 927.24 2442.04 L 932.63 2439.48 L 938.01 2436.37 L 943.04 2432.88 L 947.99 2428.80 L 952.88 2424.07 L 957.70 2418.66 L 960.90 2414.26 L 963.85 2409.25 L 966.53 2403.57 L 968.79 2397.70 L 970.80 2391.38 L 972.54 2384.61 L 973.97 2377.76 L 975.14 2370.70 L 976.07 2363.44 L 977.00 2352.52 L 977.42 2341.72 L 977.38 2331.05 L 976.93 2321.11 L 976.06 2311.53 L 974.91 2303.30 L 973.35 2295.64 L 971.68 2289.92 L 970.23 2286.40 L 968.86 2284.08 L 967.57 2282.66 L 965.89 2281.58 L 963.56 2280.60 L 960.39 2279.76 L 955.34 2279.02 L 948.87 2278.67 L 948.87 2278.67 Z"
        fill="#a5a3ff" fill-rule="nonzero" group-id="2" id="path36283-0-6" node-id="108" stroke="none"
        target-height="546.71216" target-width="172.2442" target-x="805.1788" target-y="2278.671"></path>
    <path
        d="M 700.31 2136.88 L 698.47 2137.11 L 696.69 2137.82 L 694.44 2139.30 L 691.58 2141.82 L 687.56 2146.22 L 682.79 2152.40 L 678.13 2159.29 L 673.13 2167.51 L 668.34 2176.23 L 663.61 2185.79 L 659.23 2195.67 L 655.25 2205.88 L 652.88 2212.81 L 650.83 2219.66 L 649.09 2226.44 L 647.67 2233.29 L 646.69 2239.84 L 646.13 2246.11 L 646.04 2252.40 L 646.48 2258.19 L 647.41 2263.55 L 649.32 2270.43 L 651.59 2276.75 L 654.18 2282.54 L 657.11 2287.83 L 660.50 2292.95 L 664.13 2297.59 L 668.02 2301.79 L 672.16 2305.58 L 676.62 2309.04 L 681.25 2312.10 L 686.06 2314.77 L 691.05 2317.07 L 696.21 2318.99 L 701.46 2320.55 L 706.81 2321.75 L 712.26 2322.59 L 717.27 2363.59 L 722.84 2413.25 L 725.65 2440.41 L 728.52 2469.82 L 731.23 2499.89 L 733.86 2531.56 L 736.25 2563.66 L 738.42 2596.72 L 740.26 2629.99 L 741.74 2663.55 L 742.81 2697.10 L 743.40 2730.30 L 743.50 2752.40 L 743.34 2774.03 L 742.92 2795.22 L 743.09 2798.37 L 743.77 2801.27 L 744.94 2803.98 L 746.55 2806.46 L 748.52 2808.58 L 750.87 2810.38 L 753.48 2811.76 L 756.33 2812.65 L 759.46 2813.06 L 762.60 2812.89 L 765.51 2812.21 L 768.22 2811.04 L 770.70 2809.43 L 772.82 2807.46 L 774.62 2805.11 L 775.99 2802.50 L 776.89 2799.65 L 777.30 2796.53 L 777.31 2796.13 L 777.75 2773.40 L 777.91 2750.23 L 777.77 2726.59 L 777.09 2691.11 L 775.89 2655.37 L 774.23 2619.66 L 772.18 2584.45 L 769.80 2549.52 L 767.18 2515.83 L 764.32 2482.69 L 761.40 2451.51 L 765.69 2452.29 L 769.98 2452.65 L 774.27 2452.59 L 778.60 2452.12 L 782.82 2451.20 L 786.93 2449.80 L 790.95 2447.91 L 794.89 2445.49 L 798.47 2442.69 L 801.87 2439.30 L 805.08 2435.27 L 808.11 2430.53 L 809.81 2426.87 L 811.17 2422.69 L 812.16 2417.92 L 812.74 2413.07 L 813.03 2407.95 L 813.00 2402.55 L 812.46 2394.47 L 811.43 2386.49 L 809.96 2378.73 L 808.26 2371.85 L 806.23 2365.45 L 804.28 2360.70 L 802.71 2357.79 L 801.40 2356.04 L 800.29 2355.12 L 798.69 2354.54 L 796.31 2354.24 L 792.91 2354.35 L 787.68 2355.12 L 781.10 2356.71 L 774.31 2358.88 L 766.96 2361.74 L 759.68 2365.10 L 752.60 2368.95 L 746.63 2319.89 L 752.04 2318.19 L 757.28 2316.17 L 762.35 2313.81 L 767.28 2311.13 L 772.01 2308.11 L 776.47 2304.79 L 780.67 2301.15 L 784.62 2297.20 L 788.25 2292.96 L 791.53 2288.43 L 794.46 2283.58 L 797.04 2278.41 L 799.17 2273.08 L 800.86 2267.43 L 802.11 2261.44 L 802.91 2255.07 L 803.17 2248.76 L 802.89 2242.09 L 802.04 2235.01 L 800.58 2227.49 L 799.34 2223.18 L 797.70 2218.76 L 795.62 2214.21 L 793.06 2209.53 L 789.31 2203.57 L 784.99 2197.55 L 780.08 2191.48 L 774.88 2185.65 L 769.37 2179.96 L 763.54 2174.40 L 754.49 2166.51 L 745.37 2159.34 L 736.11 2152.79 L 727.49 2147.37 L 721.65 2144.09 L 716.45 2141.51 L 711.83 2139.53 L 707.04 2137.90 L 703.26 2137.08 L 700.31 2136.88 Z"
        fill="#a5a3ff" fill-rule="nonzero" group-id="2" id="path36285-3-8" node-id="109" stroke="none"
        target-height="676.178" target-width="166.98761" target-x="646.03784" target-y="2136.883"></path>
    <path
        d="M 566.57 2757.68 L 994.04 2757.68 L 999.60 2757.98 L 1004.91 2758.78 L 1009.98 2760.08 L 1014.86 2761.86 L 1019.57 2764.13 L 1023.95 2766.79 L 1028.03 2769.83 L 1031.83 2773.28 L 1035.28 2777.08 L 1038.33 2781.16 L 1040.98 2785.55 L 1043.25 2790.25 L 1045.04 2795.13 L 1046.34 2800.21 L 1047.14 2805.51 L 1047.43 2811.07 L 1047.14 2816.63 L 1046.34 2821.94 L 1045.04 2827.01 L 1043.25 2831.89 L 1040.98 2836.60 L 1038.33 2840.98 L 1035.28 2845.06 L 1031.83 2848.86 L 1028.03 2852.31 L 1023.95 2855.36 L 1019.57 2858.01 L 1014.86 2860.28 L 1009.98 2862.07 L 1004.91 2863.36 L 999.60 2864.16 L 994.04 2864.46 L 566.57 2864.46 L 561.01 2864.16 L 555.70 2863.36 L 550.63 2862.07 L 545.75 2860.28 L 541.04 2858.01 L 536.66 2855.36 L 532.58 2852.31 L 528.78 2848.86 L 525.33 2845.06 L 522.28 2840.98 L 519.63 2836.60 L 517.36 2831.89 L 515.57 2827.01 L 514.28 2821.94 L 513.47 2816.63 L 513.18 2811.07 L 513.47 2805.51 L 514.28 2800.21 L 515.57 2795.13 L 517.36 2790.25 L 519.63 2785.55 L 522.28 2781.16 L 525.33 2777.08 L 528.78 2773.28 L 532.58 2769.83 L 536.66 2766.79 L 541.04 2764.13 L 545.75 2761.86 L 550.63 2760.07 L 555.70 2758.78 L 561.01 2757.98 L 566.57 2757.68 Z"
        fill="#cecfff" fill-rule="nonzero" group-id="2" id="rect36299-9-19-9" node-id="110" stroke="none"
        target-height="106.778076" target-width="534.254" target-x="513.1782" target-y="2757.682"></path>
    <path
        d="M 551.25 2325.93 L 547.29 2326.12 L 544.36 2326.69 L 542.25 2327.54 L 540.73 2328.71 L 538.97 2330.76 L 536.93 2333.97 L 534.29 2339.31 L 531.41 2346.58 L 528.84 2354.48 L 526.31 2363.77 L 524.12 2373.47 L 522.22 2383.97 L 520.75 2394.67 L 519.76 2405.59 L 519.40 2412.90 L 519.32 2420.05 L 519.53 2427.05 L 520.06 2434.03 L 520.93 2440.59 L 522.13 2446.77 L 523.78 2452.84 L 525.80 2458.28 L 528.19 2463.17 L 531.90 2469.21 L 535.79 2474.62 L 539.85 2479.43 L 544.08 2483.69 L 548.71 2487.65 L 553.44 2491.10 L 558.29 2494.06 L 563.27 2496.55 L 568.46 2498.66 L 573.71 2500.34 L 579.02 2501.60 L 584.40 2502.44 L 589.85 2502.90 L 595.28 2502.99 L 600.70 2502.71 L 606.14 2502.05 L 613.29 2500.64 L 620.28 2498.64 L 627.13 2496.05 L 632.76 2506.67 L 638.80 2518.77 L 645.26 2532.48 L 651.37 2546.31 L 657.60 2561.55 L 663.94 2578.27 L 669.78 2595.12 L 675.45 2613.28 L 680.94 2632.81 L 684.62 2647.44 L 688.04 2662.74 L 691.20 2678.75 L 694.08 2695.48 L 696.48 2712.05 L 698.47 2729.25 L 700.03 2747.11 L 701.15 2765.65 L 701.73 2783.99 L 701.73 2802.93 L 701.15 2822.50 L 699.96 2842.71 L 700.00 2845.87 L 700.54 2848.80 L 701.59 2851.56 L 703.10 2854.10 L 704.97 2856.31 L 707.24 2858.21 L 709.79 2859.70 L 712.59 2860.72 L 715.70 2861.26 L 718.85 2861.23 L 721.78 2860.68 L 724.54 2859.63 L 727.09 2858.13 L 729.30 2856.26 L 731.20 2853.99 L 732.68 2851.44 L 733.70 2848.63 L 734.25 2845.53 L 734.27 2845.30 L 735.44 2825.80 L 736.06 2806.85 L 736.16 2788.45 L 735.73 2770.56 L 734.81 2752.50 L 733.48 2735.02 L 731.75 2718.11 L 729.63 2701.75 L 727.08 2685.24 L 724.25 2669.36 L 721.15 2654.07 L 717.79 2639.38 L 722.66 2641.38 L 727.66 2642.84 L 732.82 2643.76 L 738.04 2644.09 L 743.22 2643.79 L 748.38 2642.85 L 752.15 2641.73 L 755.80 2640.20 L 759.37 2638.25 L 762.87 2635.85 L 766.05 2633.15 L 769.08 2629.96 L 771.95 2626.24 L 774.67 2621.93 L 776.37 2618.27 L 777.73 2614.09 L 778.72 2609.32 L 779.30 2604.47 L 779.58 2599.36 L 779.55 2593.95 L 779.02 2585.87 L 777.99 2577.90 L 776.52 2570.13 L 774.82 2563.25 L 772.79 2556.85 L 770.84 2552.10 L 769.27 2549.19 L 767.96 2547.45 L 766.85 2546.52 L 765.31 2545.96 L 763.05 2545.65 L 759.84 2545.72 L 754.89 2546.39 L 748.64 2547.83 L 742.19 2549.81 L 735.15 2552.45 L 728.14 2555.56 L 721.23 2559.14 L 716.75 2561.80 L 712.60 2564.58 L 708.77 2567.48 L 705.16 2570.65 L 702.14 2573.84 L 699.66 2577.05 L 694.73 2563.23 L 689.81 2550.27 L 684.90 2538.12 L 677.22 2520.36 L 669.87 2504.60 L 662.39 2489.63 L 655.55 2476.76 L 659.39 2472.54 L 662.89 2468.10 L 666.04 2463.42 L 668.87 2458.49 L 671.29 2453.36 L 673.28 2448.05 L 674.85 2442.52 L 675.98 2436.77 L 676.61 2430.98 L 676.73 2425.01 L 676.31 2418.82 L 675.34 2412.38 L 673.85 2406.16 L 671.73 2399.72 L 668.92 2393.05 L 665.38 2386.11 L 662.46 2381.53 L 658.90 2376.94 L 654.64 2372.35 L 650.05 2368.07 L 644.99 2363.86 L 639.41 2359.72 L 633.64 2355.84 L 627.60 2352.13 L 621.28 2348.57 L 611.60 2343.65 L 601.82 2339.26 L 591.98 2335.36 L 582.61 2332.14 L 573.39 2329.47 L 565.23 2327.58 L 559.83 2326.65 L 555.20 2326.12 L 551.25 2325.93 Z"
        fill="#cecfff" fill-rule="nonzero" group-id="2" id="path36279-3-6" node-id="111" stroke="none"
        target-height="535.33594" target-width="260.26324" target-x="519.3213" target-y="2325.929"></path>
    <path
        d="M 1598.07 1873.97 C 1603.29 1852.39 1553.54 1801.15 1553.54 1801.15 C 1554.36 1799.47 1591.02 1796.14 1573.23 1778.14 C 1554.04 1760.72 1530.66 1760.22 1507.86 1768.35 C 1462.89 1681.75 1400.61 1551.34 1344.73 1460.37 C 1299.37 1479.91 1245.42 1494.32 1260.05 1530.33 C 1304.46 1636.18 1380.27 1716.56 1457.20 1805.22 L 1486.39 1877.91 C 1501.31 1902.56 1551.94 1913.80 1598.07 1873.97 L 1598.07 1873.97 Z"
        fill="#f6cdc1" fill-rule="nonzero" id="path24143" node-id="112" stroke="none" target-height="453.42798"
        target-width="357.86597" target-x="1245.423" target-y="1460.369"></path>
    <path
        d="M 1281.50 1574.45 C 1282.13 1571.90 1253.52 1524.21 1249.07 1512.13 C 1244.61 1500.05 1258.60 1439.00 1258.60 1439.00 L 1344.73 1460.37 C 1344.73 1460.37 1344.45 1528.03 1341.91 1530.57 C 1339.36 1533.11 1281.50 1574.45 1281.50 1574.45 L 1281.50 1574.45 Z"
        fill="#f6cdc1" fill-rule="nonzero" id="path24145" node-id="113" stroke="none" target-height="135.44702"
        target-width="100.12097" target-x="1244.614" target-y="1439"></path>
    <path d="M 1377.06 1487.04 L 1401.91 1456.19 L 1223.85 1382.76 L 1225.05 1461.42 L 1377.06 1487.04 Z" fill="#ffffff"
        fill-rule="nonzero" id="path2763" node-id="114" stroke="none" target-height="104.28003" target-width="178.068"
        target-x="1223.845" target-y="1382.755"></path>
</svg>