<svg xmlns="http://www.w3.org/2000/svg" xmlns:xlink="http://www.w3.org/1999/xlink" data-v-0dd9719b="" version="1.0" width="16" height="16" viewBox="0 0 340.000000 250.000000" preserveAspectRatio="xMidYMid meet" color-interpolation-filters="sRGB" style="margin: auto;">   <g data-v-0dd9719b="" fill="#1dd165" class="icon-text-wrapper icon-svg-group iconsvg" transform="translate(117.77499771118164,56.87810516357422)"><g class="iconsvg-imagesvg" transform="translate(22.22500228881836,0)"><g><rect fill="#1dd165" fill-opacity="0" stroke-width="2" x="0" y="0" width="60" height="63.80128027902426" class="image-rect"/> <svg x="0" y="0" width="60" height="63.80128027902426" filtersec="colorsb9549903386" class="image-svg-svg primary" style="overflow: visible;"><svg xmlns="http://www.w3.org/2000/svg" viewBox="-0.005511641502380371 -0.0011513382196426392 112.60130310058594 119.73571014404297"><title>资源 3</title><g><g><path d="M60.49 98.87c12.23.24 22.34-4.28 30-14.15 3.23-4.16 7.73-5.34 12.15-3.67a10.47 10.47 0 0 1 6.58 10.09 11 11 0 0 1-2.65 6.43c-16.13 20-37.32 25.93-61.39 19.94C20.73 111.42 5.64 95 1 70.09-5.19 36.84 17.89 5.32 51.23.58A56.83 56.83 0 0 1 59.67 0 10.18 10.18 0 0 1 70 10.43a10.15 10.15 0 0 1-10.31 10.19c-18.3-.15-35.62 13.43-38.77 33.63S32.6 95.16 52.74 98.32a36.64 36.64 0 0 0 7.75.55z" fill="#1dd165"/><path d="M65.69 55.72l26.16-26c2.54-2.53 5.3-4.31 9.08-4.32a10.74 10.74 0 0 1 10.31 6.33c2.08 4.12 1.85 8.51-1.27 11.75-11.17 11.63-22.48 23.1-34.2 34.16-.54-.79-.14-1.57.07-2.34 1.16-4.4.32-8.12-3.19-11.31a45.94 45.94 0 0 1-7.3-7.64.47.47 0 0 1 .34-.63z" fill="#9971fe"/><path d="M65.69 55.72a1.21 1.21 0 0 0 0 .38c-.77 2.06-2.66 3.17-4 4.71-1.21 1.35-2.54 2.58-3.72 4-2.75 3.19-3.21 6.79-2.2 10.71.2.79.61 1.55.1 2.35-6.63-6.57-13.35-12.98-19.75-19.69-3.94-4.13-3.25-11.42 1-15.33a11.29 11.29 0 0 1 15.58 0c4.35 4.26 8.65 8.59 12.99 12.87z" fill="#feb228"/><path d="M55.83 77.83c-2.65-6-1.5-11.1 3.41-15.46 2.23-2 4.3-4.17 6.45-6.27 2.9 2.85 5.94 5.58 8.67 8.59 3.55 3.89 3.24 8.38 1.41 13-4.77 7.16-14.48 7.73-19.94.14z" fill="#0078fb"/></g></g></svg></svg> <!----></g></g> </g><defs v-gra="od"/></svg>