<?xml version="1.0" standalone="no"?><!DOCTYPE svg PUBLIC "-//W3C//DTD SVG 1.1//EN" "http://www.w3.org/Graphics/SVG/1.1/DTD/svg11.dtd"><svg t="1710046182455" class="icon" viewBox="0 0 1024 1024" version="1.1" xmlns="http://www.w3.org/2000/svg" p-id="4416" xmlns:xlink="http://www.w3.org/1999/xlink" width="128" height="128"><path d="M486.4 284.8c-54.4 0-99.2 38.4-102.4 89.6V617.6l-12.8-9.6-3.2-3.2c-44.8-32-105.6-28.8-144 9.6l-3.2 3.2-3.2 3.2c-35.2 41.6-28.8 99.2 9.6 134.4l3.2 3.2 134.4 105.6H832v-243.2c0-32-28.8-60.8-60.8-60.8h-182.4v-179.2c0-54.4-44.8-96-102.4-96z m0 60.8c19.2 0 35.2 12.8 35.2 28.8V620.8h243.2V864h-307.2l-83.2-73.6-99.2-80c-16-12.8-19.2-32-9.6-48l3.2-3.2 3.2-3.2c12.8-12.8 35.2-16 51.2-9.6l3.2 3.2 3.2 3.2 121.6 99.2V380.8c0-19.2 16-35.2 35.2-35.2zM483.2 160c-124.8 0-224 92.8-224 208 0 51.2 22.4 102.4 60.8 140.8l6.4 6.4v-140.8c-3.2-51.2 25.6-102.4 73.6-128s108.8-28.8 160-3.2c48 25.6 76.8 70.4 80 118.4v153.6c41.6-38.4 67.2-92.8 67.2-147.2 0-115.2-99.2-208-224-208z" fill="#38B781" p-id="4417"></path></svg>